<?xml version="1.0" encoding="UTF-8"?>
<!DOCTYPE svg PUBLIC "-//W3C//DTD SVG 1.1//EN" "http://www.w3.org/Graphics/SVG/1.1/DTD/svg11.dtd">
<svg xmlns="http://www.w3.org/2000/svg" version="1.1" width="550px" height="454px" style="shape-rendering:geometricPrecision; text-rendering:geometricPrecision; image-rendering:optimizeQuality; fill-rule:evenodd; clip-rule:evenodd" xmlns:xlink="http://www.w3.org/1999/xlink">
<g><path style="opacity:0.89" fill="#4583ad" d="M 419.5,62.5 C 414.049,65.8779 408.049,67.5446 401.5,67.5C 407.252,65.312 413.252,63.6453 419.5,62.5 Z"/></g>
<g><path style="opacity:1" fill="#056db6" d="M 419.5,62.5 C 420.609,62.5569 421.609,62.8902 422.5,63.5C 424.483,77.7952 425.15,92.4619 424.5,107.5C 423.819,109.158 422.985,110.825 422,112.5C 420.933,111.809 419.766,111.309 418.5,111C 419.654,110.086 419.487,109.253 418,108.5C 417.333,109.833 416.667,111.167 416,112.5C 415.648,108.319 413.481,105.985 409.5,105.5C 409.833,102.5 408.5,101.167 405.5,101.5C 405.762,100.022 405.429,98.6888 404.5,97.5C 401.226,94.1241 397.56,91.1241 393.5,88.5C 391.129,86.2344 389.129,83.7344 387.5,81C 388.678,80.0331 390.011,79.5331 391.5,79.5C 392.228,77.8068 393.228,76.3068 394.5,75C 393.5,74.6667 392.5,74.3333 391.5,74C 384.943,75.1268 378.276,76.1268 371.5,77C 369.321,77.4419 368.655,78.4419 369.5,80C 365.5,80.3333 361.5,80.6667 357.5,81C 356.833,81.6667 356.167,82.3333 355.5,83C 351.653,83.6334 347.986,84.4667 344.5,85.5C 343.167,85.5 341.833,85.5 340.5,85.5C 341.5,84.8333 342.5,84.1667 343.5,83.5C 353.24,79.9505 363.24,77.2838 373.5,75.5C 375.786,75.405 377.786,74.7384 379.5,73.5C 379.833,73.5 380.167,73.5 380.5,73.5C 385.149,72.935 389.816,72.435 394.5,72C 396.84,70.3587 399.173,68.8587 401.5,67.5C 408.049,67.5446 414.049,65.8779 419.5,62.5 Z"/></g>
<g><path style="opacity:1" fill="#4382af" d="M 401.5,67.5 C 399.173,68.8587 396.84,70.3587 394.5,72C 389.816,72.435 385.149,72.935 380.5,73.5C 387.178,70.7228 394.178,68.7228 401.5,67.5 Z"/></g>
<g><path style="opacity:0.255" fill="#7fb2d4" d="M 379.5,73.5 C 377.786,74.7384 375.786,75.405 373.5,75.5C 375.102,73.9261 377.102,73.2594 379.5,73.5 Z"/></g>
<g><path style="opacity:1" fill="#0066b0" d="M 424.5,107.5 C 424.667,124.503 424.5,141.503 424,158.5C 423.333,159.833 422.667,159.833 422,158.5C 421.51,157.207 421.343,155.873 421.5,154.5C 418.972,153.977 416.639,152.977 414.5,151.5C 413.558,151.608 412.725,151.941 412,152.5C 412.317,150.227 413.817,149.227 416.5,149.5C 416.5,148.167 416.5,146.833 416.5,145.5C 413.813,145.664 411.146,145.497 408.5,145C 405.315,142.116 402.482,138.949 400,135.5C 398.847,137.497 397.347,137.83 395.5,136.5C 393.126,134.461 391.126,132.128 389.5,129.5C 390.933,127.664 391.433,125.664 391,123.5C 389.5,122.667 388.333,121.5 387.5,120C 385.336,119.567 383.336,120.067 381.5,121.5C 378.167,119.5 375.5,116.833 373.5,113.5C 374.167,112.167 374.833,110.833 375.5,109.5C 372.235,104.612 367.568,101.946 361.5,101.5C 361.672,99.5082 361.005,97.8415 359.5,96.5C 359.709,95.914 360.043,95.414 360.5,95C 357.805,94.0226 354.805,92.8559 351.5,91.5C 352.485,89.9017 352.651,88.235 352,86.5C 351.667,86.8333 351.333,87.1667 351,87.5C 349.246,85.75 347.079,85.0833 344.5,85.5C 347.986,84.4667 351.653,83.6334 355.5,83C 356.167,82.3333 356.833,81.6667 357.5,81C 361.5,80.6667 365.5,80.3333 369.5,80C 368.655,78.4419 369.321,77.4419 371.5,77C 378.276,76.1268 384.943,75.1268 391.5,74C 392.5,74.3333 393.5,74.6667 394.5,75C 393.228,76.3068 392.228,77.8068 391.5,79.5C 390.011,79.5331 388.678,80.0331 387.5,81C 389.129,83.7344 391.129,86.2344 393.5,88.5C 397.56,91.1241 401.226,94.1241 404.5,97.5C 405.429,98.6888 405.762,100.022 405.5,101.5C 408.5,101.167 409.833,102.5 409.5,105.5C 413.481,105.985 415.648,108.319 416,112.5C 416.667,111.167 417.333,109.833 418,108.5C 419.487,109.253 419.654,110.086 418.5,111C 419.766,111.309 420.933,111.809 422,112.5C 422.985,110.825 423.819,109.158 424.5,107.5 Z"/></g>
<g><path style="opacity:0.22" fill="#90bee0" d="M 343.5,83.5 C 342.5,84.1667 341.5,84.8333 340.5,85.5C 339.5,85.5 338.5,85.5 337.5,85.5C 339.102,83.9261 341.102,83.2594 343.5,83.5 Z"/></g>
<g><path style="opacity:1" fill="#0661a9" d="M 422.5,63.5 C 423.209,62.596 424.209,62.2627 425.5,62.5C 425.5,98.5 425.5,134.5 425.5,170.5C 424.167,170.5 422.833,170.5 421.5,170.5C 418.324,169.66 415.658,167.993 413.5,165.5C 412.673,163.185 411.34,161.185 409.5,159.5C 411.128,157.681 413.128,156.347 415.5,155.5C 414.264,154.643 412.931,153.977 411.5,153.5C 410.167,154.5 408.833,155.5 407.5,156.5C 405.253,155.626 402.92,155.292 400.5,155.5C 400.719,154.325 400.386,153.325 399.5,152.5C 397.199,151.675 394.865,151.008 392.5,150.5C 390.18,149.657 388.013,149.657 386,150.5C 385.505,152.473 385.338,154.473 385.5,156.5C 383.801,156.527 382.467,157.194 381.5,158.5C 380.028,156.866 378.362,155.366 376.5,154C 377.059,153.275 377.392,152.442 377.5,151.5C 376.008,149.028 375.342,146.361 375.5,143.5C 372.5,143.833 371.167,142.5 371.5,139.5C 370.167,139.5 368.833,139.5 367.5,139.5C 367.762,140.978 367.429,142.311 366.5,143.5C 365.655,139.649 363.322,137.649 359.5,137.5C 359.5,136.167 359.5,134.833 359.5,133.5C 355.735,133.324 353.735,131.324 353.5,127.5C 354.552,127.649 355.552,127.483 356.5,127C 353.956,124.778 353.956,122.611 356.5,120.5C 354.993,119.261 353.826,119.595 353,121.5C 352.781,120.062 352.281,118.729 351.5,117.5C 350.286,121.043 348.286,124.043 345.5,126.5C 344.675,127.386 343.675,127.719 342.5,127.5C 344.474,124.518 346.474,121.518 348.5,118.5C 341.613,112.575 334.613,106.908 327.5,101.5C 325.876,98.2099 323.543,95.5433 320.5,93.5C 325.959,91.0529 331.625,89.3862 337.5,88.5C 337.5,87.5 337.5,86.5 337.5,85.5C 338.5,85.5 339.5,85.5 340.5,85.5C 341.833,85.5 343.167,85.5 344.5,85.5C 347.079,85.0833 349.246,85.75 351,87.5C 351.333,87.1667 351.667,86.8333 352,86.5C 352.651,88.235 352.485,89.9017 351.5,91.5C 354.805,92.8559 357.805,94.0226 360.5,95C 360.043,95.414 359.709,95.914 359.5,96.5C 361.005,97.8415 361.672,99.5082 361.5,101.5C 367.568,101.946 372.235,104.612 375.5,109.5C 374.833,110.833 374.167,112.167 373.5,113.5C 375.5,116.833 378.167,119.5 381.5,121.5C 383.336,120.067 385.336,119.567 387.5,120C 388.333,121.5 389.5,122.667 391,123.5C 391.433,125.664 390.933,127.664 389.5,129.5C 391.126,132.128 393.126,134.461 395.5,136.5C 397.347,137.83 398.847,137.497 400,135.5C 402.482,138.949 405.315,142.116 408.5,145C 411.146,145.497 413.813,145.664 416.5,145.5C 416.5,146.833 416.5,148.167 416.5,149.5C 413.817,149.227 412.317,150.227 412,152.5C 412.725,151.941 413.558,151.608 414.5,151.5C 416.639,152.977 418.972,153.977 421.5,154.5C 421.343,155.873 421.51,157.207 422,158.5C 422.667,159.833 423.333,159.833 424,158.5C 424.5,141.503 424.667,124.503 424.5,107.5C 425.15,92.4619 424.483,77.7952 422.5,63.5 Z"/></g>
<g><path style="opacity:1" fill="#356ca0" d="M 337.5,85.5 C 337.5,86.5 337.5,87.5 337.5,88.5C 331.625,89.3862 325.959,91.0529 320.5,93.5C 323.543,95.5433 325.876,98.2099 327.5,101.5C 324.177,100.173 321.177,98.3395 318.5,96C 316.393,94.7365 315.393,92.9032 315.5,90.5C 322.843,88.829 330.176,87.1623 337.5,85.5 Z"/></g>
<g><path style="opacity:0.039" fill="#cdf9fd" d="M 426.5,62.5 C 427.498,99.6629 427.832,136.996 427.5,174.5C 426.209,174.737 425.209,174.404 424.5,173.5C 426.494,136.848 427.16,99.8484 426.5,62.5 Z"/></g>
<g><path style="opacity:1" fill="#0159a1" d="M 381.5,158.5 C 379.891,158.094 378.557,158.094 377.5,158.5C 378.415,159.328 379.081,160.328 379.5,161.5C 377.946,163.944 376.946,166.611 376.5,169.5C 376.167,170.167 375.833,170.833 375.5,171.5C 373.833,171.5 372.167,171.5 370.5,171.5C 370.657,172.873 370.49,174.207 370,175.5C 368.45,176.591 367.283,177.924 366.5,179.5C 366.5,178.5 366.5,177.5 366.5,176.5C 365.5,176.5 364.5,176.5 363.5,176.5C 363.245,173.984 362.411,171.65 361,169.5C 356.632,167.502 352.632,164.835 349,161.5C 349.498,159.473 349.331,157.473 348.5,155.5C 346.562,152.921 344.729,152.921 343,155.5C 341.477,153.431 340.643,151.097 340.5,148.5C 337.843,148.838 335.51,148.171 333.5,146.5C 332.583,147.127 331.583,147.461 330.5,147.5C 332.641,144.711 334.307,141.711 335.5,138.5C 336.5,138.5 337.5,138.5 338.5,138.5C 338.34,140.199 338.506,141.866 339,143.5C 340.167,141.667 341.667,140.167 343.5,139C 342.272,138.221 341.272,137.221 340.5,136C 342.578,133.316 343.244,130.482 342.5,127.5C 343.675,127.719 344.675,127.386 345.5,126.5C 348.286,124.043 350.286,121.043 351.5,117.5C 352.281,118.729 352.781,120.062 353,121.5C 353.826,119.595 354.993,119.261 356.5,120.5C 353.956,122.611 353.956,124.778 356.5,127C 355.552,127.483 354.552,127.649 353.5,127.5C 353.735,131.324 355.735,133.324 359.5,133.5C 359.5,134.833 359.5,136.167 359.5,137.5C 363.322,137.649 365.655,139.649 366.5,143.5C 367.429,142.311 367.762,140.978 367.5,139.5C 368.833,139.5 370.167,139.5 371.5,139.5C 371.167,142.5 372.5,143.833 375.5,143.5C 375.342,146.361 376.008,149.028 377.5,151.5C 377.392,152.442 377.059,153.275 376.5,154C 378.362,155.366 380.028,156.866 381.5,158.5 Z"/></g>
<g><path style="opacity:1" fill="#2f669d" d="M 342.5,127.5 C 343.244,130.482 342.578,133.316 340.5,136C 341.272,137.221 342.272,138.221 343.5,139C 341.667,140.167 340.167,141.667 339,143.5C 338.506,141.866 338.34,140.199 338.5,138.5C 337.5,138.5 336.5,138.5 335.5,138.5C 334.307,141.711 332.641,144.711 330.5,147.5C 328.938,147.733 327.605,148.4 326.5,149.5C 331.809,142.185 337.142,134.852 342.5,127.5 Z"/></g>
<g><path style="opacity:0.817" fill="#185987" d="M 426.5,62.5 C 427.16,99.8484 426.494,136.848 424.5,173.5C 424.027,172.094 423.027,171.427 421.5,171.5C 421.5,171.167 421.5,170.833 421.5,170.5C 422.833,170.5 424.167,170.5 425.5,170.5C 425.5,134.5 425.5,98.5 425.5,62.5C 424.209,62.2627 423.209,62.596 422.5,63.5C 421.609,62.8902 420.609,62.5569 419.5,62.5C 420.912,61.4675 422.578,60.8008 424.5,60.5C 425.713,60.7472 426.38,61.4138 426.5,62.5 Z"/></g>
<g><path style="opacity:1" fill="#2e6aa4" d="M 392.5,150.5 C 394.865,151.008 397.199,151.675 399.5,152.5C 400.386,153.325 400.719,154.325 400.5,155.5C 402.92,155.292 405.253,155.626 407.5,156.5C 408.833,155.5 410.167,154.5 411.5,153.5C 412.931,153.977 414.264,154.643 415.5,155.5C 413.128,156.347 411.128,157.681 409.5,159.5C 411.34,161.185 412.673,163.185 413.5,165.5C 405.963,161.233 398.963,156.233 392.5,150.5 Z"/></g>
<g><path style="opacity:0.341" fill="#ebf06c" d="M 284.5,152.5 C 283.329,153.345 281.995,154.011 280.5,154.5C 276.119,155.376 271.786,156.376 267.5,157.5C 272.821,154.961 278.488,153.295 284.5,152.5 Z"/></g>
<g><path style="opacity:1" fill="#3e6ea3" d="M 392.5,150.5 C 390.983,150.511 389.816,151.177 389,152.5C 385.356,158.63 381.189,164.297 376.5,169.5C 376.946,166.611 377.946,163.944 379.5,161.5C 379.081,160.328 378.415,159.328 377.5,158.5C 378.557,158.094 379.891,158.094 381.5,158.5C 382.467,157.194 383.801,156.527 385.5,156.5C 385.338,154.473 385.505,152.473 386,150.5C 388.013,149.657 390.18,149.657 392.5,150.5 Z"/></g>
<g><path style="opacity:1" fill="#01539a" d="M 366.5,179.5 C 366.565,179.938 366.399,180.272 366,180.5C 364.97,178.224 363.47,177.557 361.5,178.5C 362.374,180.747 362.708,183.08 362.5,185.5C 361.5,185.5 360.5,185.5 359.5,185.5C 359.167,187.5 358.833,189.5 358.5,191.5C 357.5,191.5 356.5,191.5 355.5,191.5C 355.326,193.861 354.993,196.194 354.5,198.5C 353.876,200.754 352.543,202.421 350.5,203.5C 349.167,203.5 347.833,203.5 346.5,203.5C 346.5,204.833 346.5,206.167 346.5,207.5C 345.167,207.5 343.833,207.5 342.5,207.5C 340.272,203.388 337.772,199.388 335,195.5C 335.314,192.454 335.147,189.454 334.5,186.5C 330.231,183.934 325.564,182.934 320.5,183.5C 321.244,186.95 319.91,188.616 316.5,188.5C 316.377,185.412 317.377,182.745 319.5,180.5C 318.18,178.183 316.514,176.183 314.5,174.5C 316.285,174.212 317.952,174.212 319.5,174.5C 317.89,172.275 316.557,169.941 315.5,167.5C 316.793,166.355 317.959,166.689 319,168.5C 318.756,165.633 319.089,162.633 320,159.5C 323.405,157.037 325.571,153.704 326.5,149.5C 327.605,148.4 328.938,147.733 330.5,147.5C 331.583,147.461 332.583,147.127 333.5,146.5C 335.51,148.171 337.843,148.838 340.5,148.5C 340.643,151.097 341.477,153.431 343,155.5C 344.729,152.921 346.562,152.921 348.5,155.5C 349.331,157.473 349.498,159.473 349,161.5C 352.632,164.835 356.632,167.502 361,169.5C 362.411,171.65 363.245,173.984 363.5,176.5C 364.5,176.5 365.5,176.5 366.5,176.5C 366.5,177.5 366.5,178.5 366.5,179.5 Z"/></g>
<g><path style="opacity:1" fill="#e0f10c" d="M 294.5,148.5 C 295.5,149.167 296.5,149.833 297.5,150.5C 297.793,162.55 297.459,174.55 296.5,186.5C 295.549,187.919 295.216,189.585 295.5,191.5C 294.167,191.5 292.833,191.5 291.5,191.5C 291.548,188.708 290.215,186.875 287.5,186C 287.833,185.667 288.167,185.333 288.5,185C 284.833,183.333 281.167,181.667 277.5,180C 274.251,177.483 270.918,175.15 267.5,173C 259.73,170.248 251.73,167.915 243.5,166C 244.328,165.085 245.328,164.419 246.5,164C 256.167,161.947 265.833,159.78 275.5,157.5C 277.544,156.935 279.21,155.935 280.5,154.5C 281.995,154.011 283.329,153.345 284.5,152.5C 287.554,150.645 290.888,149.312 294.5,148.5 Z"/></g>
<g><path style="opacity:0.027" fill="#fdfdb0" d="M 294.5,148.5 C 296.167,148.5 297.833,148.5 299.5,148.5C 299.5,160.5 299.5,172.5 299.5,184.5C 299.672,185.492 299.338,186.158 298.5,186.5C 298.5,186.167 298.5,185.833 298.5,185.5C 298.828,173.655 298.495,161.988 297.5,150.5C 296.5,149.833 295.5,149.167 294.5,148.5 Z"/></g>
<g><path style="opacity:0.404" fill="#e1eb6d" d="M 242.5,164.5 C 239.417,166.025 236.084,167.025 232.5,167.5C 235.381,165.32 238.714,164.32 242.5,164.5 Z"/></g>
<g><path style="opacity:1" fill="#3a6798" d="M 326.5,149.5 C 325.571,153.704 323.405,157.037 320,159.5C 319.089,162.633 318.756,165.633 319,168.5C 317.959,166.689 316.793,166.355 315.5,167.5C 314.778,167.918 314.278,168.584 314,169.5C 313.23,168.402 312.397,168.402 311.5,169.5C 316.016,162.467 321.016,155.8 326.5,149.5 Z"/></g>
<g><path style="opacity:1" fill="#d3ec10" d="M 280.5,154.5 C 279.21,155.935 277.544,156.935 275.5,157.5C 265.833,159.78 256.167,161.947 246.5,164C 245.328,164.419 244.328,165.085 243.5,166C 251.73,167.915 259.73,170.248 267.5,173C 270.918,175.15 274.251,177.483 277.5,180C 281.167,181.667 284.833,183.333 288.5,185C 288.167,185.333 287.833,185.667 287.5,186C 290.215,186.875 291.548,188.708 291.5,191.5C 292.833,191.5 294.167,191.5 295.5,191.5C 295.216,189.585 295.549,187.919 296.5,186.5C 296.5,192.833 296.5,199.167 296.5,205.5C 295.691,207.292 295.191,209.292 295,211.5C 293.916,210.335 293.083,209.002 292.5,207.5C 291.675,206.614 290.675,206.281 289.5,206.5C 289.078,201.244 288.078,200.744 286.5,205C 286.833,205.333 287.167,205.667 287.5,206C 285.56,207.207 283.727,207.374 282,206.5C 281.517,205.552 281.351,204.552 281.5,203.5C 276.653,202.439 271.986,200.772 267.5,198.5C 265.31,196.993 263.976,194.993 263.5,192.5C 259.667,190.69 256.334,188.023 253.5,184.5C 246.847,182.846 241.18,179.68 236.5,175C 233.065,174.116 229.732,172.949 226.5,171.5C 225.5,171.667 224.5,171.833 223.5,172C 223.833,172.333 224.167,172.667 224.5,173C 222.797,173.745 221.13,174.579 219.5,175.5C 217.547,174.844 215.547,174.511 213.5,174.5C 213.833,173.833 214.167,173.167 214.5,172.5C 219.787,171.356 225.12,170.356 230.5,169.5C 230.863,168.817 231.196,168.15 231.5,167.5C 231.833,167.5 232.167,167.5 232.5,167.5C 236.084,167.025 239.417,166.025 242.5,164.5C 250.448,161.189 258.782,158.856 267.5,157.5C 271.786,156.376 276.119,155.376 280.5,154.5 Z"/></g>
<g><path style="opacity:0.996" fill="#d6e557" d="M 231.5,167.5 C 231.196,168.15 230.863,168.817 230.5,169.5C 225.12,170.356 219.787,171.356 214.5,172.5C 219.835,170.078 225.502,168.412 231.5,167.5 Z"/></g>
<g><path style="opacity:0.086" fill="#b0d2e8" d="M 421.5,171.5 C 423.027,171.427 424.027,172.094 424.5,173.5C 422.973,173.573 421.973,172.906 421.5,171.5 Z"/></g>
<g><path style="opacity:1" fill="#034d91" d="M 315.5,167.5 C 316.557,169.941 317.89,172.275 319.5,174.5C 317.952,174.212 316.285,174.212 314.5,174.5C 316.514,176.183 318.18,178.183 319.5,180.5C 317.377,182.745 316.377,185.412 316.5,188.5C 319.91,188.616 321.244,186.95 320.5,183.5C 325.564,182.934 330.231,183.934 334.5,186.5C 335.147,189.454 335.314,192.454 335,195.5C 337.772,199.388 340.272,203.388 342.5,207.5C 343.473,209.068 343.64,210.735 343,212.5C 342.085,211.672 341.419,210.672 341,209.5C 339.383,210.536 339.216,211.703 340.5,213C 338.431,213.324 338.098,214.158 339.5,215.5C 338.675,216.386 337.675,216.719 336.5,216.5C 335.446,220.273 334.113,223.94 332.5,227.5C 332.167,227.5 331.833,227.5 331.5,227.5C 329.893,224.311 330.56,221.645 333.5,219.5C 331.634,219.902 329.634,219.902 327.5,219.5C 328.779,217.854 330.445,216.687 332.5,216C 330.5,216 328.5,216 326.5,216C 324.992,214.493 323.659,212.827 322.5,211C 321.552,210.517 320.552,210.351 319.5,210.5C 319.5,211.5 319.5,212.5 319.5,213.5C 315.875,213.381 313.541,211.547 312.5,208C 310.899,207.727 309.399,207.227 308,206.5C 306.301,201.468 304.468,196.468 302.5,191.5C 301.262,194.168 301.262,196.834 302.5,199.5C 302.043,200.298 301.376,200.631 300.5,200.5C 300.26,194.773 300.593,189.106 301.5,183.5C 304.453,178.55 307.786,173.883 311.5,169.5C 312.397,168.402 313.23,168.402 314,169.5C 314.278,168.584 314.778,167.918 315.5,167.5 Z"/></g>
<g><path style="opacity:1" fill="#cae80d" d="M 296.5,205.5 C 296.5,212.5 296.5,219.5 296.5,226.5C 295.842,227.398 295.176,228.398 294.5,229.5C 294.356,225.988 292.69,223.654 289.5,222.5C 288.643,221.264 287.977,219.931 287.5,218.5C 280.954,215.815 274.287,213.315 267.5,211C 264.715,209.624 262.715,207.457 261.5,204.5C 254.12,201.156 246.787,197.823 239.5,194.5C 239.5,193.5 239.5,192.5 239.5,191.5C 235.233,192.08 232.233,190.414 230.5,186.5C 225.428,186.104 221.428,183.937 218.5,180C 217.146,178.706 215.812,178.54 214.5,179.5C 212.739,178.965 211.406,177.965 210.5,176.5C 211.222,175.449 212.222,174.782 213.5,174.5C 215.547,174.511 217.547,174.844 219.5,175.5C 221.13,174.579 222.797,173.745 224.5,173C 224.167,172.667 223.833,172.333 223.5,172C 224.5,171.833 225.5,171.667 226.5,171.5C 229.732,172.949 233.065,174.116 236.5,175C 241.18,179.68 246.847,182.846 253.5,184.5C 256.334,188.023 259.667,190.69 263.5,192.5C 263.976,194.993 265.31,196.993 267.5,198.5C 271.986,200.772 276.653,202.439 281.5,203.5C 281.351,204.552 281.517,205.552 282,206.5C 283.727,207.374 285.56,207.207 287.5,206C 287.167,205.667 286.833,205.333 286.5,205C 288.078,200.744 289.078,201.244 289.5,206.5C 290.675,206.281 291.675,206.614 292.5,207.5C 293.083,209.002 293.916,210.335 295,211.5C 295.191,209.292 295.691,207.292 296.5,205.5 Z"/></g>
<g><path style="opacity:1" fill="#c7df46" d="M 214.5,172.5 C 214.167,173.167 213.833,173.833 213.5,174.5C 212.222,174.782 211.222,175.449 210.5,176.5C 206.456,175.958 202.789,176.791 199.5,179C 201.658,180.312 201.991,181.978 200.5,184C 202.594,186.825 204.594,189.658 206.5,192.5C 200.601,188.941 195.267,184.608 190.5,179.5C 198.2,176.24 206.2,173.907 214.5,172.5 Z"/></g>
<g><path style="opacity:1" fill="#bee312" d="M 210.5,176.5 C 211.406,177.965 212.739,178.965 214.5,179.5C 215.812,178.54 217.146,178.706 218.5,180C 221.428,183.937 225.428,186.104 230.5,186.5C 232.233,190.414 235.233,192.08 239.5,191.5C 239.5,192.5 239.5,193.5 239.5,194.5C 246.787,197.823 254.12,201.156 261.5,204.5C 262.715,207.457 264.715,209.624 267.5,211C 274.287,213.315 280.954,215.815 287.5,218.5C 287.977,219.931 288.643,221.264 289.5,222.5C 292.69,223.654 294.356,225.988 294.5,229.5C 295.176,228.398 295.842,227.398 296.5,226.5C 296.5,232.833 296.5,239.167 296.5,245.5C 296.665,249.182 296.499,252.848 296,256.5C 292.502,256.808 290.002,255.141 288.5,251.5C 287.675,250.614 286.675,250.281 285.5,250.5C 285.5,249.5 285.5,248.5 285.5,247.5C 280.977,247.973 278.643,245.973 278.5,241.5C 279.5,241.5 280.5,241.5 281.5,241.5C 281.5,240.5 281.5,239.5 281.5,238.5C 278.458,239.541 275.458,239.541 272.5,238.5C 272.578,235.513 271.411,234.847 269,236.5C 263.749,232.385 259.249,233.051 255.5,238.5C 255.216,236.123 255.216,233.956 255.5,232C 244.406,226.831 234.406,220.831 225.5,214C 224.065,214.311 222.732,214.145 221.5,213.5C 220.316,215.046 219.316,216.713 218.5,218.5C 217.893,218.376 217.56,218.043 217.5,217.5C 218.183,214.453 219.183,211.453 220.5,208.5C 222.377,207.341 222.877,205.674 222,203.5C 219.418,199.745 215.918,197.411 211.5,196.5C 209.251,195.92 207.585,194.587 206.5,192.5C 204.594,189.658 202.594,186.825 200.5,184C 201.991,181.978 201.658,180.312 199.5,179C 202.789,176.791 206.456,175.958 210.5,176.5 Z"/></g>
<g><path style="opacity:1" fill="#31639a" d="M 375.5,171.5 C 368.73,180.72 361.73,189.72 354.5,198.5C 354.993,196.194 355.326,193.861 355.5,191.5C 356.5,191.5 357.5,191.5 358.5,191.5C 358.833,189.5 359.167,187.5 359.5,185.5C 360.5,185.5 361.5,185.5 362.5,185.5C 362.708,183.08 362.374,180.747 361.5,178.5C 363.47,177.557 364.97,178.224 366,180.5C 366.399,180.272 366.565,179.938 366.5,179.5C 367.283,177.924 368.45,176.591 370,175.5C 370.49,174.207 370.657,172.873 370.5,171.5C 372.167,171.5 373.833,171.5 375.5,171.5 Z"/></g>
<g><path style="opacity:1" fill="#07468a" d="M 331.5,227.5 C 329.159,227.992 327.159,229.159 325.5,231C 326.337,232.011 326.67,233.178 326.5,234.5C 324.25,234.181 322.25,234.681 320.5,236C 322.592,236.953 322.925,238.286 321.5,240C 320.167,240.333 318.833,240.667 317.5,241C 318.38,242.356 318.714,243.856 318.5,245.5C 317.167,245.5 315.833,245.5 314.5,245.5C 314.5,247.5 314.5,249.5 314.5,251.5C 308.933,260.733 302.599,269.4 295.5,277.5C 294.694,276.003 294.028,274.336 293.5,272.5C 294.33,270.865 294.497,269.198 294,267.5C 298.744,270.664 301.411,269.331 302,263.5C 303.011,262.663 304.178,262.33 305.5,262.5C 305.66,260.801 305.494,259.134 305,257.5C 303.729,258.883 302.229,259.883 300.5,260.5C 300.5,240.5 300.5,220.5 300.5,200.5C 301.376,200.631 302.043,200.298 302.5,199.5C 301.262,196.834 301.262,194.168 302.5,191.5C 304.468,196.468 306.301,201.468 308,206.5C 309.399,207.227 310.899,207.727 312.5,208C 313.541,211.547 315.875,213.381 319.5,213.5C 319.5,212.5 319.5,211.5 319.5,210.5C 320.552,210.351 321.552,210.517 322.5,211C 323.659,212.827 324.992,214.493 326.5,216C 328.5,216 330.5,216 332.5,216C 330.445,216.687 328.779,217.854 327.5,219.5C 329.634,219.902 331.634,219.902 333.5,219.5C 330.56,221.645 329.893,224.311 331.5,227.5 Z"/></g>
<g><path style="opacity:0.996" fill="#c8dc58" d="M 211.5,196.5 C 215.918,197.411 219.418,199.745 222,203.5C 222.877,205.674 222.377,207.341 220.5,208.5C 221.028,207.153 221.195,205.819 221,204.5C 217.113,202.647 213.947,199.98 211.5,196.5 Z"/></g>
<g><path style="opacity:1" fill="#c9e541" d="M 297.5,150.5 C 298.495,161.988 298.828,173.655 298.5,185.5C 297.503,205.326 297.17,225.326 297.5,245.5C 297.167,245.5 296.833,245.5 296.5,245.5C 296.5,239.167 296.5,232.833 296.5,226.5C 296.5,219.5 296.5,212.5 296.5,205.5C 296.5,199.167 296.5,192.833 296.5,186.5C 297.459,174.55 297.793,162.55 297.5,150.5 Z"/></g>
<g><path style="opacity:1" fill="#1c4b5b" d="M 301.5,183.5 C 300.593,189.106 300.26,194.773 300.5,200.5C 300.5,220.5 300.5,240.5 300.5,260.5C 299.928,263.244 298.262,264.077 295.5,263C 291.824,260.497 288.157,257.997 284.5,255.5C 283.873,254.583 283.539,253.583 283.5,252.5C 284.922,253.925 286.589,254.925 288.5,255.5C 289.984,257.074 291.651,258.407 293.5,259.5C 294.635,261.213 296.302,261.88 298.5,261.5C 298.5,236.5 298.5,211.5 298.5,186.5C 299.338,186.158 299.672,185.492 299.5,184.5C 300.167,184.167 300.833,183.833 301.5,183.5 Z"/></g>
<g><path style="opacity:1" fill="#42689a" d="M 350.5,203.5 C 345.262,212.071 339.262,220.071 332.5,227.5C 334.113,223.94 335.446,220.273 336.5,216.5C 337.675,216.719 338.675,216.386 339.5,215.5C 338.098,214.158 338.431,213.324 340.5,213C 339.216,211.703 339.383,210.536 341,209.5C 341.419,210.672 342.085,211.672 343,212.5C 343.64,210.735 343.473,209.068 342.5,207.5C 343.833,207.5 345.167,207.5 346.5,207.5C 346.5,206.167 346.5,204.833 346.5,203.5C 347.833,203.5 349.167,203.5 350.5,203.5 Z"/></g>
<g><path style="opacity:1" fill="#aedc15" d="M 255.5,238.5 C 255.921,241.657 254.755,243.99 252,245.5C 251.517,246.448 251.351,247.448 251.5,248.5C 249.181,249.167 246.847,249.334 244.5,249C 243.572,247.024 242.405,245.191 241,243.5C 239.806,244.43 238.473,245.097 237,245.5C 235.403,244.115 233.57,243.449 231.5,243.5C 231.5,242.167 231.5,240.833 231.5,239.5C 228.886,239.723 227.219,238.556 226.5,236C 223.888,235.361 221.554,234.194 219.5,232.5C 217.604,231.534 215.604,231.201 213.5,231.5C 213.167,228.833 212.833,226.167 212.5,223.5C 213.29,222.206 214.29,221.039 215.5,220C 215.167,219.667 214.833,219.333 214.5,219C 215.667,218.5 216.5,217.667 217,216.5C 217.399,216.728 217.565,217.062 217.5,217.5C 217.56,218.043 217.893,218.376 218.5,218.5C 219.316,216.713 220.316,215.046 221.5,213.5C 222.732,214.145 224.065,214.311 225.5,214C 234.406,220.831 244.406,226.831 255.5,232C 255.216,233.956 255.216,236.123 255.5,238.5 Z"/></g>
<g><path style="opacity:1" fill="#3d5e95" d="M 331.5,227.5 C 331.833,227.5 332.167,227.5 332.5,227.5C 326.984,235.866 320.984,243.866 314.5,251.5C 314.5,249.5 314.5,247.5 314.5,245.5C 315.833,245.5 317.167,245.5 318.5,245.5C 318.714,243.856 318.38,242.356 317.5,241C 318.833,240.667 320.167,240.333 321.5,240C 322.925,238.286 322.592,236.953 320.5,236C 322.25,234.681 324.25,234.181 326.5,234.5C 326.67,233.178 326.337,232.011 325.5,231C 327.159,229.159 329.159,227.992 331.5,227.5 Z"/></g>
<g><path style="opacity:1" fill="#b2d73d" d="M 220.5,208.5 C 219.183,211.453 218.183,214.453 217.5,217.5C 217.565,217.062 217.399,216.728 217,216.5C 216.5,217.667 215.667,218.5 214.5,219C 214.833,219.333 215.167,219.667 215.5,220C 214.29,221.039 213.29,222.206 212.5,223.5C 210.83,223.751 209.33,224.418 208,225.5C 206.423,229.559 205.589,233.559 205.5,237.5C 204.369,238.604 203.535,238.271 203,236.5C 201.53,237.267 200.03,237.933 198.5,238.5C 198.5,237.833 198.5,237.167 198.5,236.5C 205.459,226.874 212.792,217.541 220.5,208.5 Z"/></g>
<g><path style="opacity:1" fill="#a4d71e" d="M 212.5,223.5 C 212.833,226.167 213.167,228.833 213.5,231.5C 215.604,231.201 217.604,231.534 219.5,232.5C 221.554,234.194 223.888,235.361 226.5,236C 227.219,238.556 228.886,239.723 231.5,239.5C 231.5,240.833 231.5,242.167 231.5,243.5C 233.57,243.449 235.403,244.115 237,245.5C 238.473,245.097 239.806,244.43 241,243.5C 242.405,245.191 243.572,247.024 244.5,249C 246.847,249.334 249.181,249.167 251.5,248.5C 251.351,247.448 251.517,246.448 252,245.5C 254.755,243.99 255.921,241.657 255.5,238.5C 259.249,233.051 263.749,232.385 269,236.5C 271.411,234.847 272.578,235.513 272.5,238.5C 275.458,239.541 278.458,239.541 281.5,238.5C 281.5,239.5 281.5,240.5 281.5,241.5C 280.5,241.5 279.5,241.5 278.5,241.5C 278.643,245.973 280.977,247.973 285.5,247.5C 285.5,248.5 285.5,249.5 285.5,250.5C 286.675,250.281 287.675,250.614 288.5,251.5C 290.002,255.141 292.502,256.808 296,256.5C 296.499,252.848 296.665,249.182 296.5,245.5C 296.833,245.5 297.167,245.5 297.5,245.5C 297.827,250.544 297.494,255.544 296.5,260.5C 295.583,259.873 294.583,259.539 293.5,259.5C 291.651,258.407 289.984,257.074 288.5,255.5C 287.415,253.413 285.749,252.08 283.5,251.5C 281.611,250.396 279.945,249.063 278.5,247.5C 277.415,245.413 275.749,244.08 273.5,243.5C 271.648,240.302 268.981,238.302 265.5,237.5C 261,237.663 258.334,239.996 257.5,244.5C 255.413,245.585 254.08,247.251 253.5,249.5C 251.413,250.585 250.08,252.251 249.5,254.5C 247.674,256.147 246.34,258.147 245.5,260.5C 242.81,262.193 240.81,264.527 239.5,267.5C 239.167,267.5 238.833,267.5 238.5,267.5C 237.469,266.751 236.302,266.085 235,265.5C 234.601,265.728 234.435,266.062 234.5,266.5C 232.037,266.103 230.037,264.936 228.5,263C 230.677,261.814 231.677,259.981 231.5,257.5C 229.5,257.5 227.5,257.5 225.5,257.5C 224.833,255.5 224.167,253.5 223.5,251.5C 218.312,249.66 213.145,247.66 208,245.5C 206.14,247.201 203.973,248.201 201.5,248.5C 202.187,243.067 201.021,242.401 198,246.5C 197.583,245.244 196.75,244.577 195.5,244.5C 195.025,241.687 196.025,239.687 198.5,238.5C 200.03,237.933 201.53,237.267 203,236.5C 203.535,238.271 204.369,238.604 205.5,237.5C 205.589,233.559 206.423,229.559 208,225.5C 209.33,224.418 210.83,223.751 212.5,223.5 Z"/></g>
<g><path style="opacity:1" fill="#89b848" d="M 265.5,238.5 C 265.5,238.167 265.5,237.833 265.5,237.5C 268.981,238.302 271.648,240.302 273.5,243.5C 270.545,242.195 267.878,240.528 265.5,238.5 Z"/></g>
<g><path style="opacity:1" fill="#2c5739" d="M 265.5,237.5 C 265.5,237.833 265.5,238.167 265.5,238.5C 264.448,238.351 263.448,238.517 262.5,239C 261.167,241.191 259.5,243.024 257.5,244.5C 258.334,239.996 261,237.663 265.5,237.5 Z"/></g>
<g><path style="opacity:1" fill="#7da648" d="M 383.5,253.5 C 382.448,253.649 381.448,253.483 380.5,253C 379.667,250.833 378.167,249.333 376,248.5C 375.51,247.207 375.343,245.873 375.5,244.5C 374.167,244.5 372.833,244.5 371.5,244.5C 371.657,243.127 371.49,241.793 371,240.5C 368.164,238.16 366.33,235.16 365.5,231.5C 363.929,230.691 362.262,230.357 360.5,230.5C 361.142,228.346 362.476,227.18 364.5,227C 370.73,235.98 377.063,244.813 383.5,253.5 Z"/></g>
<g><path style="opacity:1" fill="#174255" d="M 265.5,238.5 C 267.878,240.528 270.545,242.195 273.5,243.5C 273.833,244.167 274.167,244.833 274.5,245.5C 270.144,244.831 267.144,242.498 265.5,238.5 Z"/></g>
<g><path style="opacity:1" fill="#2c5945" d="M 257.5,244.5 C 256.92,246.749 255.587,248.415 253.5,249.5C 254.08,247.251 255.413,245.585 257.5,244.5 Z"/></g>
<g><path style="opacity:1" fill="#66984e" d="M 273.5,243.5 C 275.749,244.08 277.415,245.413 278.5,247.5C 277.391,247.443 276.391,247.11 275.5,246.5C 275.5,245.833 275.167,245.5 274.5,245.5C 274.167,244.833 273.833,244.167 273.5,243.5 Z"/></g>
<g><path style="opacity:1" fill="#99d31b" d="M 234.5,266.5 C 235.203,268.034 235.036,269.701 234,271.5C 233.333,270.167 232.667,270.167 232,271.5C 230.579,273.405 229.412,275.405 228.5,277.5C 224.18,277.041 223.513,275.208 226.5,272C 225.929,270.795 225.262,269.628 224.5,268.5C 223.751,270.012 222.584,271.012 221,271.5C 214.375,265.779 206.875,261.445 198.5,258.5C 196.611,255.491 194.778,252.491 193,249.5C 192.29,250.973 191.124,251.64 189.5,251.5C 190.8,248.568 192.8,246.234 195.5,244.5C 196.75,244.577 197.583,245.244 198,246.5C 201.021,242.401 202.187,243.067 201.5,248.5C 203.973,248.201 206.14,247.201 208,245.5C 213.145,247.66 218.312,249.66 223.5,251.5C 224.167,253.5 224.833,255.5 225.5,257.5C 227.5,257.5 229.5,257.5 231.5,257.5C 231.677,259.981 230.677,261.814 228.5,263C 230.037,264.936 232.037,266.103 234.5,266.5 Z"/></g>
<g><path style="opacity:1" fill="#1a4656" d="M 275.5,246.5 C 276.391,247.11 277.391,247.443 278.5,247.5C 279.945,249.063 281.611,250.396 283.5,251.5C 283.5,251.833 283.5,252.167 283.5,252.5C 280.039,251.449 277.373,249.449 275.5,246.5 Z"/></g>
<g><path style="opacity:1" fill="#87b660" d="M 298.5,185.5 C 298.5,185.833 298.5,186.167 298.5,186.5C 298.5,211.5 298.5,236.5 298.5,261.5C 296.302,261.88 294.635,261.213 293.5,259.5C 294.583,259.539 295.583,259.873 296.5,260.5C 297.494,255.544 297.827,250.544 297.5,245.5C 297.17,225.326 297.503,205.326 298.5,185.5 Z"/></g>
<g><path style="opacity:0.984" fill="#aad052" d="M 198.5,236.5 C 198.5,237.167 198.5,237.833 198.5,238.5C 196.025,239.687 195.025,241.687 195.5,244.5C 192.8,246.234 190.8,248.568 189.5,251.5C 185.79,255.363 182.79,259.696 180.5,264.5C 178.393,266.727 176.06,268.727 173.5,270.5C 180.859,258.447 189.193,247.114 198.5,236.5 Z"/></g>
<g><path style="opacity:1" fill="#6ba04e" d="M 283.5,252.5 C 283.5,252.167 283.5,251.833 283.5,251.5C 285.749,252.08 287.415,253.413 288.5,255.5C 286.589,254.925 284.922,253.925 283.5,252.5 Z"/></g>
<g><path style="opacity:1" fill="#3b6e41" d="M 253.5,249.5 C 252.92,251.749 251.587,253.415 249.5,254.5C 250.08,252.251 251.413,250.585 253.5,249.5 Z"/></g>
<g><path style="opacity:1" fill="#679e45" d="M 360.5,230.5 C 360.427,234.181 358.76,236.514 355.5,237.5C 355.657,238.873 355.49,240.207 355,241.5C 353.008,242.328 351.508,243.661 350.5,245.5C 349.193,247.223 349.193,249.057 350.5,251C 348.963,252.11 348.297,253.61 348.5,255.5C 347.504,255.586 346.671,255.252 346,254.5C 344.951,256.107 343.451,256.773 341.5,256.5C 341.713,260.91 340.046,264.243 336.5,266.5C 336.167,266.5 335.833,266.5 335.5,266.5C 335.762,264.436 336.929,263.103 339,262.5C 339.49,261.207 339.657,259.873 339.5,258.5C 345.738,248.596 352.738,239.262 360.5,230.5 Z"/></g>
<g><path style="opacity:1" fill="#033779" d="M 265.5,238.5 C 267.144,242.498 270.144,244.831 274.5,245.5C 275.167,245.5 275.5,245.833 275.5,246.5C 277.373,249.449 280.039,251.449 283.5,252.5C 283.539,253.583 283.873,254.583 284.5,255.5C 288.157,257.997 291.824,260.497 295.5,263C 298.262,264.077 299.928,263.244 300.5,260.5C 302.229,259.883 303.729,258.883 305,257.5C 305.494,259.134 305.66,260.801 305.5,262.5C 304.178,262.33 303.011,262.663 302,263.5C 301.411,269.331 298.744,270.664 294,267.5C 294.497,269.198 294.33,270.865 293.5,272.5C 294.028,274.336 294.694,276.003 295.5,277.5C 294.876,279.754 293.543,281.421 291.5,282.5C 290.292,283.234 288.959,283.567 287.5,283.5C 287.5,284.833 287.5,286.167 287.5,287.5C 285.571,287.231 283.905,287.731 282.5,289C 282.986,291.027 282.986,293.193 282.5,295.5C 282.167,295.5 281.833,295.5 281.5,295.5C 281.762,294.022 281.429,292.689 280.5,291.5C 279.534,293.396 279.201,295.396 279.5,297.5C 277.876,297.36 276.71,298.027 276,299.5C 275.692,298.692 275.192,298.025 274.5,297.5C 272.741,301.293 271.741,305.293 271.5,309.5C 271.5,310.167 271.167,310.5 270.5,310.5C 269.5,310.5 268.5,310.5 267.5,310.5C 267.737,311.791 267.404,312.791 266.5,313.5C 266.762,312.022 266.429,310.689 265.5,309.5C 263.954,310.684 262.287,311.684 260.5,312.5C 259.872,314.258 258.872,315.758 257.5,317C 254.909,317.301 254.075,316.134 255,313.5C 261.105,310.1 260.938,307.1 254.5,304.5C 260.054,304.067 260.554,302.734 256,300.5C 255.506,298.866 255.34,297.199 255.5,295.5C 252.525,295.693 250.025,294.693 248,292.5C 247.312,288.791 245.812,285.458 243.5,282.5C 241.305,281.231 239.139,281.231 237,282.5C 235.164,280.93 235.33,279.43 237.5,278C 237.167,277.5 236.833,277 236.5,276.5C 233.25,278.75 230.584,281.417 228.5,284.5C 229.11,283.609 229.443,282.609 229.5,281.5C 229.427,279.973 230.094,278.973 231.5,278.5C 235.387,275.728 238.054,272.061 239.5,267.5C 242.219,265.781 244.219,263.447 245.5,260.5C 247.822,259.198 249.155,257.198 249.5,254.5C 251.587,253.415 252.92,251.749 253.5,249.5C 255.587,248.415 256.92,246.749 257.5,244.5C 259.5,243.024 261.167,241.191 262.5,239C 263.448,238.517 264.448,238.351 265.5,238.5 Z"/></g>
<g><path style="opacity:1" fill="#589c28" d="M 350.5,245.5 C 352.698,246.014 354.698,247.014 356.5,248.5C 358.258,247.872 359.758,246.872 361,245.5C 362.027,249.18 361.194,252.347 358.5,255C 360.5,255.333 362.5,255.667 364.5,256C 367.223,259.057 369.556,262.39 371.5,266C 372.793,266.49 374.127,266.657 375.5,266.5C 375.338,268.527 375.505,270.527 376,272.5C 376.414,272.043 376.914,271.709 377.5,271.5C 379.289,272.877 381.289,273.877 383.5,274.5C 384.425,275.357 385.092,276.357 385.5,277.5C 384.814,278.848 383.814,280.015 382.5,281C 382.833,281.333 383.167,281.667 383.5,282C 382.437,283.188 381.103,283.688 379.5,283.5C 379.815,286.211 379.148,288.544 377.5,290.5C 375.61,290.703 374.11,290.037 373,288.5C 367.817,282.177 363.317,275.51 359.5,268.5C 356.679,268.684 355.012,267.351 354.5,264.5C 353.675,263.614 352.675,263.281 351.5,263.5C 351.982,260.169 350.982,257.503 348.5,255.5C 348.297,253.61 348.963,252.11 350.5,251C 349.193,249.057 349.193,247.223 350.5,245.5 Z"/></g>
<g><path style="opacity:1" fill="#64a125" d="M 360.5,230.5 C 362.262,230.357 363.929,230.691 365.5,231.5C 366.33,235.16 368.164,238.16 371,240.5C 371.49,241.793 371.657,243.127 371.5,244.5C 372.833,244.5 374.167,244.5 375.5,244.5C 375.343,245.873 375.51,247.207 376,248.5C 378.167,249.333 379.667,250.833 380.5,253C 381.448,253.483 382.448,253.649 383.5,253.5C 383.343,254.873 383.51,256.207 384,257.5C 386,260.833 388.667,263.5 392,265.5C 392.246,268.934 391.746,272.267 390.5,275.5C 388.678,275.831 387.011,276.498 385.5,277.5C 385.092,276.357 384.425,275.357 383.5,274.5C 381.289,273.877 379.289,272.877 377.5,271.5C 376.914,271.709 376.414,272.043 376,272.5C 375.505,270.527 375.338,268.527 375.5,266.5C 374.127,266.657 372.793,266.49 371.5,266C 369.556,262.39 367.223,259.057 364.5,256C 362.5,255.667 360.5,255.333 358.5,255C 361.194,252.347 362.027,249.18 361,245.5C 359.758,246.872 358.258,247.872 356.5,248.5C 354.698,247.014 352.698,246.014 350.5,245.5C 351.508,243.661 353.008,242.328 355,241.5C 355.49,240.207 355.657,238.873 355.5,237.5C 358.76,236.514 360.427,234.181 360.5,230.5 Z"/></g>
<g><path style="opacity:1" fill="#2a593e" d="M 249.5,254.5 C 249.155,257.198 247.822,259.198 245.5,260.5C 246.34,258.147 247.674,256.147 249.5,254.5 Z"/></g>
<g><path style="opacity:0.992" fill="#91b162" d="M 383.5,253.5 C 387.46,257.397 390.96,261.731 394,266.5C 394.498,270.168 393.331,273.168 390.5,275.5C 391.746,272.267 392.246,268.934 392,265.5C 388.667,263.5 386,260.833 384,257.5C 383.51,256.207 383.343,254.873 383.5,253.5 Z"/></g>
<g><path style="opacity:1" fill="#437447" d="M 245.5,260.5 C 244.219,263.447 242.219,265.781 239.5,267.5C 240.81,264.527 242.81,262.193 245.5,260.5 Z"/></g>
<g><path style="opacity:1" fill="#49952c" d="M 348.5,255.5 C 350.982,257.503 351.982,260.169 351.5,263.5C 352.675,263.281 353.675,263.614 354.5,264.5C 355.012,267.351 356.679,268.684 359.5,268.5C 363.317,275.51 367.817,282.177 373,288.5C 374.11,290.037 375.61,290.703 377.5,290.5C 377.5,291.5 377.5,292.5 377.5,293.5C 374.861,293.429 372.694,292.429 371,290.5C 369.341,291.954 369.674,293.287 372,294.5C 372.494,296.134 372.66,297.801 372.5,299.5C 370.801,299.34 369.134,299.506 367.5,300C 368.973,300.71 369.64,301.876 369.5,303.5C 368.5,303.5 367.5,303.5 366.5,303.5C 365.566,302.432 365.232,301.099 365.5,299.5C 364.167,299.5 362.833,299.5 361.5,299.5C 361.5,298.167 361.5,296.833 361.5,295.5C 360.167,295.5 358.833,295.5 357.5,295.5C 357.762,294.022 357.429,292.689 356.5,291.5C 352.743,289.237 351.076,285.903 351.5,281.5C 350.022,281.762 348.689,281.429 347.5,280.5C 344.3,277.468 341.3,274.302 338.5,271C 338.833,270.667 339.167,270.333 339.5,270C 338.461,268.383 337.461,267.217 336.5,266.5C 340.046,264.243 341.713,260.91 341.5,256.5C 343.451,256.773 344.951,256.107 346,254.5C 346.671,255.252 347.504,255.586 348.5,255.5 Z"/></g>
<g><path style="opacity:1" fill="#8fcf1e" d="M 228.5,277.5 C 228.5,278.5 228.5,279.5 228.5,280.5C 226.801,280.34 225.134,280.506 223.5,281C 226.051,282.516 225.718,283.349 222.5,283.5C 222.5,284.833 222.5,286.167 222.5,287.5C 220.856,287.286 219.356,287.62 218,288.5C 217.56,286.924 216.727,285.59 215.5,284.5C 206.672,279.869 197.339,276.703 187.5,275C 188.167,274.667 188.833,274.333 189.5,274C 187.913,273.138 186.246,272.471 184.5,272C 183.853,270.391 183.02,268.891 182,267.5C 181.667,267.833 181.333,268.167 181,268.5C 180.51,267.207 180.343,265.873 180.5,264.5C 182.79,259.696 185.79,255.363 189.5,251.5C 191.124,251.64 192.29,250.973 193,249.5C 194.778,252.491 196.611,255.491 198.5,258.5C 206.875,261.445 214.375,265.779 221,271.5C 222.584,271.012 223.751,270.012 224.5,268.5C 225.262,269.628 225.929,270.795 226.5,272C 223.513,275.208 224.18,277.041 228.5,277.5 Z"/></g>
<g><path style="opacity:1" fill="#336242" d="M 238.5,267.5 C 238.833,267.5 239.167,267.5 239.5,267.5C 238.054,272.061 235.387,275.728 231.5,278.5C 234.072,275.031 236.406,271.364 238.5,267.5 Z"/></g>
<g><path style="opacity:1" fill="#9fcb58" d="M 173.5,270.5 C 173.103,273.446 172.103,276.113 170.5,278.5C 168.589,279.075 166.922,280.075 165.5,281.5C 167.435,277.293 170.102,273.627 173.5,270.5 Z"/></g>
<g><path style="opacity:1" fill="#82c922" d="M 180.5,264.5 C 180.343,265.873 180.51,267.207 181,268.5C 181.333,268.167 181.667,267.833 182,267.5C 183.02,268.891 183.853,270.391 184.5,272C 186.246,272.471 187.913,273.138 189.5,274C 188.833,274.333 188.167,274.667 187.5,275C 197.339,276.703 206.672,279.869 215.5,284.5C 216.727,285.59 217.56,286.924 218,288.5C 219.356,287.62 220.856,287.286 222.5,287.5C 222.5,286.167 222.5,284.833 222.5,283.5C 225.718,283.349 226.051,282.516 223.5,281C 225.134,280.506 226.801,280.34 228.5,280.5C 228.5,279.5 228.5,278.5 228.5,277.5C 229.412,275.405 230.579,273.405 232,271.5C 232.667,270.167 233.333,270.167 234,271.5C 235.036,269.701 235.203,268.034 234.5,266.5C 234.435,266.062 234.601,265.728 235,265.5C 236.302,266.085 237.469,266.751 238.5,267.5C 236.406,271.364 234.072,275.031 231.5,278.5C 230.094,278.973 229.427,279.973 229.5,281.5C 227.413,282.585 226.08,284.251 225.5,286.5C 222.529,288.443 220.529,291.109 219.5,294.5C 218.5,295.167 217.5,295.833 216.5,296.5C 215.448,296.649 214.448,296.483 213.5,296C 212.95,294.155 211.95,292.655 210.5,291.5C 209.357,293.959 209.69,296.293 211.5,298.5C 210.675,299.386 209.675,299.719 208.5,299.5C 208.649,298.448 208.483,297.448 208,296.5C 207.727,298.101 207.227,299.601 206.5,301C 207.861,302.584 208.528,304.418 208.5,306.5C 206.821,306.108 205.154,305.608 203.5,305C 204.336,303.757 204.003,302.59 202.5,301.5C 192.657,294.721 181.991,290.055 170.5,287.5C 169.922,284.388 169.922,281.388 170.5,278.5C 172.103,276.113 173.103,273.446 173.5,270.5C 176.06,268.727 178.393,266.727 180.5,264.5 Z"/></g>
<g><path style="opacity:1" fill="#7ea959" d="M 390.5,275.5 C 386.155,281.538 381.821,287.538 377.5,293.5C 377.5,292.5 377.5,291.5 377.5,290.5C 379.148,288.544 379.815,286.211 379.5,283.5C 381.103,283.688 382.437,283.188 383.5,282C 383.167,281.667 382.833,281.333 382.5,281C 383.814,280.015 384.814,278.848 385.5,277.5C 387.011,276.498 388.678,275.831 390.5,275.5 Z"/></g>
<g><path style="opacity:1" fill="#32653f" d="M 229.5,281.5 C 229.443,282.609 229.11,283.609 228.5,284.5C 227.5,285.167 226.5,285.833 225.5,286.5C 226.08,284.251 227.413,282.585 229.5,281.5 Z"/></g>
<g><path style="opacity:1" fill="#4a8f44" d="M 339.5,258.5 C 339.657,259.873 339.49,261.207 339,262.5C 336.929,263.103 335.762,264.436 335.5,266.5C 333.61,268.59 331.943,270.923 330.5,273.5C 332.086,275.173 332.753,277.173 332.5,279.5C 331.5,279.5 330.5,279.5 329.5,279.5C 329.728,277.645 329.061,276.812 327.5,277C 326.898,279.036 325.898,280.87 324.5,282.5C 325.853,283.524 326.52,284.857 326.5,286.5C 325.833,286.5 325.5,286.833 325.5,287.5C 323.61,287.703 322.11,287.037 321,285.5C 320.283,286.044 319.783,286.711 319.5,287.5C 318.833,287.5 318.167,287.5 317.5,287.5C 324.097,277.242 331.43,267.575 339.5,258.5 Z"/></g>
<g><path style="opacity:1" fill="#348b32" d="M 407.5,351.5 C 397.817,351.532 388.151,351.199 378.5,350.5C 377.025,348.59 375.025,347.424 372.5,347C 370.14,344.395 367.64,341.895 365,339.5C 364.689,338.258 365.189,337.258 366.5,336.5C 363.617,334.446 360.617,332.612 357.5,331C 355.996,329.509 355.163,327.676 355,325.5C 349.713,322.628 346.047,318.294 344,312.5C 339.7,307.199 335.034,302.199 330,297.5C 328.578,293.98 327.078,290.647 325.5,287.5C 325.5,286.833 325.833,286.5 326.5,286.5C 328.561,287.682 330.061,287.015 331,284.5C 337.418,289.348 342.418,295.348 346,302.5C 348.308,303.641 350.141,305.308 351.5,307.5C 350.132,308.594 348.965,308.26 348,306.5C 347.517,307.448 347.351,308.448 347.5,309.5C 349.308,309.491 350.975,309.991 352.5,311C 352.167,311.333 351.833,311.667 351.5,312C 354.439,316.756 355.605,316.589 355,311.5C 355.98,312.981 357.147,314.315 358.5,315.5C 359.429,316.689 359.762,318.022 359.5,319.5C 360.552,319.351 361.552,319.517 362.5,320C 368.538,326.383 373.871,333.383 378.5,341C 377.833,341.333 377.167,341.667 376.5,342C 377.64,343.973 378.973,345.807 380.5,347.5C 380.833,346.167 381.167,344.833 381.5,343.5C 383.547,345.015 385.881,345.849 388.5,346C 389.5,347 390.5,348 391.5,349C 390.833,349.333 390.167,349.667 389.5,350C 395.681,350.172 401.681,350.672 407.5,351.5 Z"/></g>
<g><path style="opacity:1" fill="#032e6e" d="M 266.5,313.5 C 264.455,314.923 263.455,316.923 263.5,319.5C 259.648,320.187 257.981,322.521 258.5,326.5C 257.85,326.196 257.183,325.863 256.5,325.5C 255.232,327.304 254.565,329.304 254.5,331.5C 253.567,334.37 251.9,336.704 249.5,338.5C 249.461,337.417 249.127,336.417 248.5,335.5C 249.274,334.289 250.107,334.289 251,335.5C 251.314,333.131 252.148,330.964 253.5,329C 253.167,328.5 252.833,328 252.5,327.5C 250.574,326.939 248.574,326.773 246.5,327C 247.167,326.333 247.833,325.667 248.5,325C 245.284,324.997 242.617,323.831 240.5,321.5C 239.614,322.325 239.281,323.325 239.5,324.5C 237.61,324.703 236.11,324.037 235,322.5C 233.376,316.552 229.876,312.219 224.5,309.5C 223.571,308.311 223.238,306.978 223.5,305.5C 221.058,305.646 220.391,304.813 221.5,303C 223.085,302.915 224.418,302.749 225.5,302.5C 224.045,300.78 223.212,298.78 223,296.5C 221.956,297.623 221.29,298.956 221,300.5C 219.603,301.877 218.103,302.71 216.5,303C 217.382,305.262 218.382,307.429 219.5,309.5C 219.167,310.167 218.833,310.833 218.5,311.5C 216.494,309.492 214.161,308.159 211.5,307.5C 212.925,306.078 213.925,304.411 214.5,302.5C 214.557,301.391 214.89,300.391 215.5,299.5C 217.587,298.415 218.92,296.749 219.5,294.5C 220.5,293.833 221.5,293.167 222.5,292.5C 225.972,290.961 227.972,288.294 228.5,284.5C 230.584,281.417 233.25,278.75 236.5,276.5C 236.833,277 237.167,277.5 237.5,278C 235.33,279.43 235.164,280.93 237,282.5C 239.139,281.231 241.305,281.231 243.5,282.5C 245.812,285.458 247.312,288.791 248,292.5C 250.025,294.693 252.525,295.693 255.5,295.5C 255.34,297.199 255.506,298.866 256,300.5C 260.554,302.734 260.054,304.067 254.5,304.5C 260.938,307.1 261.105,310.1 255,313.5C 254.075,316.134 254.909,317.301 257.5,317C 258.872,315.758 259.872,314.258 260.5,312.5C 262.287,311.684 263.954,310.684 265.5,309.5C 266.429,310.689 266.762,312.022 266.5,313.5 Z"/></g>
<g><path style="opacity:1" fill="#78c524" d="M 170.5,278.5 C 169.922,281.388 169.922,284.388 170.5,287.5C 181.991,290.055 192.657,294.721 202.5,301.5C 204.003,302.59 204.336,303.757 203.5,305C 205.154,305.608 206.821,306.108 208.5,306.5C 207.282,307.161 205.949,307.828 204.5,308.5C 204.898,313.743 202.564,316.41 197.5,316.5C 198.106,313.084 197.106,310.418 194.5,308.5C 193.548,310.045 193.215,311.712 193.5,313.5C 190.171,313.736 187.171,312.903 184.5,311C 179.664,306.97 174.664,303.303 169.5,300C 167.567,299.749 165.734,299.249 164,298.5C 163.145,301.956 164.311,304.456 167.5,306C 166.5,306.667 165.5,306.667 164.5,306C 161.989,303.821 159.822,301.321 158,298.5C 156.916,299.665 156.083,300.998 155.5,302.5C 154.386,303.776 153.386,303.776 152.5,302.5C 156.181,296.997 160.014,291.664 164,286.5C 164.608,284.846 165.108,283.179 165.5,281.5C 166.922,280.075 168.589,279.075 170.5,278.5 Z"/></g>
<g><path style="opacity:1" fill="#053252" d="M 228.5,284.5 C 227.972,288.294 225.972,290.961 222.5,292.5C 223.5,290.5 224.5,288.5 225.5,286.5C 226.5,285.833 227.5,285.167 228.5,284.5 Z"/></g>
<g><path style="opacity:1" fill="#465c89" d="M 291.5,282.5 C 288.883,287.114 285.883,291.447 282.5,295.5C 282.986,293.193 282.986,291.027 282.5,289C 283.905,287.731 285.571,287.231 287.5,287.5C 287.5,286.167 287.5,284.833 287.5,283.5C 288.959,283.567 290.292,283.234 291.5,282.5 Z"/></g>
<g><path style="opacity:1" fill="#3c7145" d="M 225.5,286.5 C 224.5,288.5 223.5,290.5 222.5,292.5C 221.5,293.167 220.5,293.833 219.5,294.5C 220.529,291.109 222.529,288.443 225.5,286.5 Z"/></g>
<g><path style="opacity:1" fill="#6aa04d" d="M 377.5,293.5 C 374.522,298.469 371.189,303.135 367.5,307.5C 367.167,306.167 366.833,304.833 366.5,303.5C 367.5,303.5 368.5,303.5 369.5,303.5C 369.64,301.876 368.973,300.71 367.5,300C 369.134,299.506 370.801,299.34 372.5,299.5C 372.66,297.801 372.494,296.134 372,294.5C 369.674,293.287 369.341,291.954 371,290.5C 372.694,292.429 374.861,293.429 377.5,293.5 Z"/></g>
<g><path style="opacity:1" fill="#2a8735" d="M 325.5,287.5 C 327.078,290.647 328.578,293.98 330,297.5C 335.034,302.199 339.7,307.199 344,312.5C 346.047,318.294 349.713,322.628 355,325.5C 355.163,327.676 355.996,329.509 357.5,331C 360.617,332.612 363.617,334.446 366.5,336.5C 365.189,337.258 364.689,338.258 365,339.5C 367.64,341.895 370.14,344.395 372.5,347C 375.025,347.424 377.025,348.59 378.5,350.5C 372.368,350.767 366.034,350.767 359.5,350.5C 357.75,348.602 355.584,347.269 353,346.5C 351.999,343.827 350.499,341.493 348.5,339.5C 347.262,331.751 343.095,326.084 336,322.5C 335.798,320.744 335.298,319.078 334.5,317.5C 328.439,311.439 322.772,305.772 317.5,300.5C 318.529,300.704 319.529,300.204 320.5,299C 319.794,295.869 319.127,292.702 318.5,289.5C 318.863,288.817 319.196,288.15 319.5,287.5C 319.783,286.711 320.283,286.044 321,285.5C 322.11,287.037 323.61,287.703 325.5,287.5 Z"/></g>
<g><path style="opacity:0.961" fill="#90c453" d="M 165.5,281.5 C 165.108,283.179 164.608,284.846 164,286.5C 160.014,291.664 156.181,296.997 152.5,302.5C 150.477,305.52 147.81,307.854 144.5,309.5C 150.738,299.596 157.738,290.262 165.5,281.5 Z"/></g>
<g><path style="opacity:1" fill="#3c7343" d="M 219.5,294.5 C 218.92,296.749 217.587,298.415 215.5,299.5C 215.557,298.391 215.89,297.391 216.5,296.5C 217.5,295.833 218.5,295.167 219.5,294.5 Z"/></g>
<g><path style="opacity:1" fill="#32497e" d="M 281.5,295.5 C 278.655,300.527 275.321,305.194 271.5,309.5C 271.741,305.293 272.741,301.293 274.5,297.5C 275.192,298.025 275.692,298.692 276,299.5C 276.71,298.027 277.876,297.36 279.5,297.5C 279.201,295.396 279.534,293.396 280.5,291.5C 281.429,292.689 281.762,294.022 281.5,295.5 Z"/></g>
<g><path style="opacity:1" fill="#6dbf29" d="M 216.5,296.5 C 215.89,297.391 215.557,298.391 215.5,299.5C 214.89,300.391 214.557,301.391 214.5,302.5C 211.893,303.712 210.226,305.712 209.5,308.5C 207.086,309.911 205.419,311.911 204.5,314.5C 203.833,315.5 203.167,316.5 202.5,317.5C 199.677,318.992 198.01,321.326 197.5,324.5C 194.81,326.193 192.81,328.527 191.5,331.5C 189.806,332.527 188.473,333.861 187.5,335.5C 186.5,335.5 185.5,335.5 184.5,335.5C 185.363,333.105 185.363,330.771 184.5,328.5C 182.183,329.82 180.183,331.486 178.5,333.5C 170.595,329.247 162.595,325.08 154.5,321C 155.357,320.311 156.023,319.478 156.5,318.5C 153.893,317.682 151.226,317.182 148.5,317C 147.431,313.797 145.431,312.797 142.5,314C 143.582,312.67 144.249,311.17 144.5,309.5C 147.81,307.854 150.477,305.52 152.5,302.5C 153.386,303.776 154.386,303.776 155.5,302.5C 156.083,300.998 156.916,299.665 158,298.5C 159.822,301.321 161.989,303.821 164.5,306C 165.5,306.667 166.5,306.667 167.5,306C 164.311,304.456 163.145,301.956 164,298.5C 165.734,299.249 167.567,299.749 169.5,300C 174.664,303.303 179.664,306.97 184.5,311C 187.171,312.903 190.171,313.736 193.5,313.5C 193.215,311.712 193.548,310.045 194.5,308.5C 197.106,310.418 198.106,313.084 197.5,316.5C 202.564,316.41 204.898,313.743 204.5,308.5C 205.949,307.828 207.282,307.161 208.5,306.5C 208.528,304.418 207.861,302.584 206.5,301C 207.227,299.601 207.727,298.101 208,296.5C 208.483,297.448 208.649,298.448 208.5,299.5C 209.675,299.719 210.675,299.386 211.5,298.5C 209.69,296.293 209.357,293.959 210.5,291.5C 211.95,292.655 212.95,294.155 213.5,296C 214.448,296.483 215.448,296.649 216.5,296.5 Z"/></g>
<g><path style="opacity:1" fill="#41884f" d="M 317.5,287.5 C 317.778,290.29 317.111,292.79 315.5,295C 315.645,295.772 315.978,296.439 316.5,297C 314.661,298.132 312.661,298.965 310.5,299.5C 309.066,301.22 308.233,303.22 308,305.5C 304.917,307.417 302.75,310.084 301.5,313.5C 299.408,315.605 297.075,317.272 294.5,318.5C 301.813,307.861 309.479,297.528 317.5,287.5 Z"/></g>
<g><path style="opacity:1" fill="#133e3e" d="M 214.5,302.5 C 213.925,304.411 212.925,306.078 211.5,307.5C 210.833,307.833 210.167,308.167 209.5,308.5C 210.226,305.712 211.893,303.712 214.5,302.5 Z"/></g>
<g><path style="opacity:1" fill="#1c8039" d="M 317.5,287.5 C 318.167,287.5 318.833,287.5 319.5,287.5C 319.196,288.15 318.863,288.817 318.5,289.5C 319.127,292.702 319.794,295.869 320.5,299C 319.529,300.204 318.529,300.704 317.5,300.5C 322.772,305.772 328.439,311.439 334.5,317.5C 335.298,319.078 335.798,320.744 336,322.5C 343.095,326.084 347.262,331.751 348.5,339.5C 350.499,341.493 351.999,343.827 353,346.5C 355.584,347.269 357.75,348.602 359.5,350.5C 334.833,350.5 310.167,350.5 285.5,350.5C 285.657,349.127 285.49,347.793 285,346.5C 283.887,347.711 282.72,347.711 281.5,346.5C 280.186,347.313 279.019,348.313 278,349.5C 277.833,349 277.667,348.5 277.5,348C 279.014,342.584 281.014,337.418 283.5,332.5C 284.88,333.706 286.047,333.373 287,331.5C 287.861,328.632 289.528,326.298 292,324.5C 292.49,323.207 292.657,321.873 292.5,320.5C 293.167,319.833 293.833,319.167 294.5,318.5C 297.075,317.272 299.408,315.605 301.5,313.5C 302.75,310.084 304.917,307.417 308,305.5C 308.233,303.22 309.066,301.22 310.5,299.5C 312.661,298.965 314.661,298.132 316.5,297C 315.978,296.439 315.645,295.772 315.5,295C 317.111,292.79 317.778,290.29 317.5,287.5 Z"/></g>
<g><path style="opacity:0.384" fill="#9bb381" d="M 430.5,315.5 C 428.97,314.789 427.637,313.789 426.5,312.5C 426.5,311.167 425.833,310.5 424.5,310.5C 405.833,309.833 387.167,309.167 368.5,308.5C 387.134,308.437 405.801,308.27 424.5,308C 427.087,309.995 429.087,312.495 430.5,315.5 Z"/></g>
<g><path style="opacity:1" fill="#012768" d="M 249.5,338.5 C 247.073,338.523 244.74,339.023 242.5,340C 242.307,341.645 242.14,343.479 242,345.5C 241.005,346.066 240.172,346.733 239.5,347.5C 238.596,348.209 238.263,349.209 238.5,350.5C 230.703,350.659 223.37,348.993 216.5,345.5C 214.983,346.911 213.649,346.744 212.5,345C 213.5,344.667 214.5,344.333 215.5,344C 213.01,341.345 210.344,338.845 207.5,336.5C 206.271,335.719 204.938,335.219 203.5,335C 205.213,333.622 206.547,331.955 207.5,330C 206.056,329.219 204.723,329.386 203.5,330.5C 201.003,331.578 199.337,333.411 198.5,336C 197.833,336.667 197.167,336.667 196.5,336C 195.409,333.936 195.242,331.769 196,329.5C 196.718,328.549 197.551,328.383 198.5,329C 197.289,329.893 197.289,330.726 198.5,331.5C 199.042,328.737 199.375,326.071 199.5,323.5C 200.5,321.5 201.5,319.5 202.5,317.5C 203.167,316.5 203.833,315.5 204.5,314.5C 206.914,313.089 208.581,311.089 209.5,308.5C 210.167,308.167 210.833,307.833 211.5,307.5C 214.161,308.159 216.494,309.492 218.5,311.5C 218.833,310.833 219.167,310.167 219.5,309.5C 218.382,307.429 217.382,305.262 216.5,303C 218.103,302.71 219.603,301.877 221,300.5C 221.29,298.956 221.956,297.623 223,296.5C 223.212,298.78 224.045,300.78 225.5,302.5C 224.418,302.749 223.085,302.915 221.5,303C 220.391,304.813 221.058,305.646 223.5,305.5C 223.238,306.978 223.571,308.311 224.5,309.5C 229.876,312.219 233.376,316.552 235,322.5C 236.11,324.037 237.61,324.703 239.5,324.5C 239.281,323.325 239.614,322.325 240.5,321.5C 242.617,323.831 245.284,324.997 248.5,325C 247.833,325.667 247.167,326.333 246.5,327C 248.574,326.773 250.574,326.939 252.5,327.5C 252.833,328 253.167,328.5 253.5,329C 252.148,330.964 251.314,333.131 251,335.5C 250.107,334.289 249.274,334.289 248.5,335.5C 249.127,336.417 249.461,337.417 249.5,338.5 Z"/></g>
<g><path style="opacity:1" fill="#25563c" d="M 209.5,308.5 C 208.581,311.089 206.914,313.089 204.5,314.5C 205.419,311.911 207.086,309.911 209.5,308.5 Z"/></g>
<g><path style="opacity:0.753" fill="#506188" d="M 270.5,310.5 C 268.889,314.051 266.556,317.051 263.5,319.5C 263.455,316.923 264.455,314.923 266.5,313.5C 267.404,312.791 267.737,311.791 267.5,310.5C 268.5,310.5 269.5,310.5 270.5,310.5 Z"/></g>
<g><path style="opacity:1" fill="#41912f" d="M 335.5,266.5 C 335.833,266.5 336.167,266.5 336.5,266.5C 337.461,267.217 338.461,268.383 339.5,270C 339.167,270.333 338.833,270.667 338.5,271C 341.3,274.302 344.3,277.468 347.5,280.5C 348.689,281.429 350.022,281.762 351.5,281.5C 351.076,285.903 352.743,289.237 356.5,291.5C 357.429,292.689 357.762,294.022 357.5,295.5C 358.833,295.5 360.167,295.5 361.5,295.5C 361.5,296.833 361.5,298.167 361.5,299.5C 362.833,299.5 364.167,299.5 365.5,299.5C 365.232,301.099 365.566,302.432 366.5,303.5C 366.833,304.833 367.167,306.167 367.5,307.5C 367.5,308.167 367.833,308.5 368.5,308.5C 387.167,309.167 405.833,309.833 424.5,310.5C 414.5,310.5 404.5,310.5 394.5,310.5C 392.076,310.192 389.743,310.526 387.5,311.5C 388.833,312.5 388.833,313.5 387.5,314.5C 385.631,315.624 383.631,316.457 381.5,317C 382.912,318.791 384.745,319.958 387,320.5C 388.333,319.167 389.667,319.167 391,320.5C 391.635,321.966 392.469,323.3 393.5,324.5C 392.975,325.192 392.308,325.692 391.5,326C 392.833,327.667 394.167,329.333 395.5,331C 395.167,331.333 394.833,331.667 394.5,332C 395.701,332.903 396.535,334.069 397,335.5C 397.667,334.167 398.333,334.167 399,335.5C 402.421,344.238 408.254,348.238 416.5,347.5C 416.5,348.5 416.5,349.5 416.5,350.5C 420.5,350.5 424.5,350.5 428.5,350.5C 429.167,350.5 429.5,350.833 429.5,351.5C 422.167,351.5 414.833,351.5 407.5,351.5C 401.681,350.672 395.681,350.172 389.5,350C 390.167,349.667 390.833,349.333 391.5,349C 390.5,348 389.5,347 388.5,346C 385.881,345.849 383.547,345.015 381.5,343.5C 381.167,344.833 380.833,346.167 380.5,347.5C 378.973,345.807 377.64,343.973 376.5,342C 377.167,341.667 377.833,341.333 378.5,341C 373.871,333.383 368.538,326.383 362.5,320C 361.552,319.517 360.552,319.351 359.5,319.5C 359.762,318.022 359.429,316.689 358.5,315.5C 357.147,314.315 355.98,312.981 355,311.5C 355.605,316.589 354.439,316.756 351.5,312C 351.833,311.667 352.167,311.333 352.5,311C 350.975,309.991 349.308,309.491 347.5,309.5C 347.351,308.448 347.517,307.448 348,306.5C 348.965,308.26 350.132,308.594 351.5,307.5C 350.141,305.308 348.308,303.641 346,302.5C 342.418,295.348 337.418,289.348 331,284.5C 330.061,287.015 328.561,287.682 326.5,286.5C 326.52,284.857 325.853,283.524 324.5,282.5C 325.898,280.87 326.898,279.036 327.5,277C 329.061,276.812 329.728,277.645 329.5,279.5C 330.5,279.5 331.5,279.5 332.5,279.5C 332.753,277.173 332.086,275.173 330.5,273.5C 331.943,270.923 333.61,268.59 335.5,266.5 Z"/></g>
<g><path style="opacity:1" fill="#4d972a" d="M 394.5,310.5 C 393.909,311.151 393.243,311.818 392.5,312.5C 397.73,313.925 397.73,315.091 392.5,316C 395.753,317.036 399.086,317.703 402.5,318C 403.249,319.734 403.749,321.567 404,323.5C 408.747,328.41 412.914,333.743 416.5,339.5C 420.292,343.443 424.292,347.109 428.5,350.5C 424.5,350.5 420.5,350.5 416.5,350.5C 416.5,349.5 416.5,348.5 416.5,347.5C 408.254,348.238 402.421,344.238 399,335.5C 398.333,334.167 397.667,334.167 397,335.5C 396.535,334.069 395.701,332.903 394.5,332C 394.833,331.667 395.167,331.333 395.5,331C 394.167,329.333 392.833,327.667 391.5,326C 392.308,325.692 392.975,325.192 393.5,324.5C 392.469,323.3 391.635,321.966 391,320.5C 389.667,319.167 388.333,319.167 387,320.5C 384.745,319.958 382.912,318.791 381.5,317C 383.631,316.457 385.631,315.624 387.5,314.5C 388.833,313.5 388.833,312.5 387.5,311.5C 389.743,310.526 392.076,310.192 394.5,310.5 Z"/></g>
<g><path style="opacity:1" fill="#5b9e27" d="M 394.5,310.5 C 404.5,310.5 414.5,310.5 424.5,310.5C 425.833,310.5 426.5,311.167 426.5,312.5C 428.168,314.991 427.834,317.158 425.5,319C 426.549,319.492 427.549,319.326 428.5,318.5C 429.245,320.747 430.578,322.58 432.5,324C 431.216,325.297 431.383,326.464 433,327.5C 433.308,326.692 433.808,326.025 434.5,325.5C 435.5,326.167 436.5,326.833 437.5,327.5C 440.155,331.545 442.488,336.378 444.5,342C 446.813,342.662 449.146,343.162 451.5,343.5C 451.247,345.827 451.914,347.827 453.5,349.5C 448.546,350.235 443.879,351.568 439.5,353.5C 438.5,353.5 437.5,353.5 436.5,353.5C 436.918,352.778 437.584,352.278 438.5,352C 435.518,351.502 432.518,351.335 429.5,351.5C 429.5,350.833 429.167,350.5 428.5,350.5C 424.292,347.109 420.292,343.443 416.5,339.5C 412.914,333.743 408.747,328.41 404,323.5C 403.749,321.567 403.249,319.734 402.5,318C 399.086,317.703 395.753,317.036 392.5,316C 397.73,315.091 397.73,313.925 392.5,312.5C 393.243,311.818 393.909,311.151 394.5,310.5 Z"/></g>
<g><path style="opacity:1" fill="#1a4c3a" d="M 202.5,317.5 C 201.5,319.5 200.5,321.5 199.5,323.5C 198.833,323.833 198.167,324.167 197.5,324.5C 198.01,321.326 199.677,318.992 202.5,317.5 Z"/></g>
<g><path style="opacity:0.812" fill="#41537c" d="M 263.5,319.5 C 262.214,322.117 260.547,324.45 258.5,326.5C 257.981,322.521 259.648,320.187 263.5,319.5 Z"/></g>
<g><path style="opacity:0.898" fill="#5b966a" d="M 292.5,320.5 C 292.657,321.873 292.49,323.207 292,324.5C 289.528,326.298 287.861,328.632 287,331.5C 286.047,333.373 284.88,333.706 283.5,332.5C 286.503,328.491 289.503,324.491 292.5,320.5 Z"/></g>
<g><path style="opacity:0.99" fill="#515e8a" d="M 258.5,326.5 C 257.92,328.749 256.587,330.415 254.5,331.5C 254.565,329.304 255.232,327.304 256.5,325.5C 257.183,325.863 257.85,326.196 258.5,326.5 Z"/></g>
<g><path style="opacity:1" fill="#5cb82d" d="M 144.5,309.5 C 144.249,311.17 143.582,312.67 142.5,314C 145.431,312.797 147.431,313.797 148.5,317C 151.226,317.182 153.893,317.682 156.5,318.5C 156.023,319.478 155.357,320.311 154.5,321C 162.595,325.08 170.595,329.247 178.5,333.5C 180.183,331.486 182.183,329.82 184.5,328.5C 185.363,330.771 185.363,333.105 184.5,335.5C 185.5,335.5 186.5,335.5 187.5,335.5C 185.474,338.518 183.474,341.518 181.5,344.5C 180.094,344.973 179.427,345.973 179.5,347.5C 179.167,347.5 178.833,347.5 178.5,347.5C 176.641,347.461 175.308,348.294 174.5,350C 172.167,350.667 169.833,350.667 167.5,350C 163.116,349.079 158.783,347.579 154.5,345.5C 152.38,346.872 151.38,346.205 151.5,343.5C 143.699,341.845 136.032,339.678 128.5,337C 129.252,336.329 129.586,335.496 129.5,334.5C 130.821,330.874 132.154,327.207 133.5,323.5C 136.435,318.235 140.101,313.568 144.5,309.5 Z"/></g>
<g><path style="opacity:1" fill="#285c43" d="M 197.5,324.5 C 196.219,327.447 194.219,329.781 191.5,331.5C 192.81,328.527 194.81,326.193 197.5,324.5 Z"/></g>
<g><path style="opacity:1" fill="#122762" d="M 199.5,323.5 C 199.375,326.071 199.042,328.737 198.5,331.5C 197.289,330.726 197.289,329.893 198.5,329C 197.551,328.383 196.718,328.549 196,329.5C 195.242,331.769 195.409,333.936 196.5,336C 197.167,336.667 197.833,336.667 198.5,336C 199.337,333.411 201.003,331.578 203.5,330.5C 204.723,329.386 206.056,329.219 207.5,330C 206.547,331.955 205.213,333.622 203.5,335C 204.938,335.219 206.271,335.719 207.5,336.5C 210.344,338.845 213.01,341.345 215.5,344C 214.5,344.333 213.5,344.667 212.5,345C 213.649,346.744 214.983,346.911 216.5,345.5C 223.37,348.993 230.703,350.659 238.5,350.5C 238.263,349.209 238.596,348.209 239.5,347.5C 239.5,348.833 239.5,350.167 239.5,351.5C 225.194,353.475 210.86,353.809 196.5,352.5C 192.018,351.674 187.351,351.174 182.5,351C 181.62,349.644 181.286,348.144 181.5,346.5C 181.5,345.833 181.5,345.167 181.5,344.5C 186.042,341.077 189.375,336.743 191.5,331.5C 194.219,329.781 196.219,327.447 197.5,324.5C 198.167,324.167 198.833,323.833 199.5,323.5 Z"/></g>
<g><path style="opacity:1" fill="#285f3f" d="M 191.5,331.5 C 189.375,336.743 186.042,341.077 181.5,344.5C 183.474,341.518 185.474,338.518 187.5,335.5C 188.473,333.861 189.806,332.527 191.5,331.5 Z"/></g>
<g><path style="opacity:1" fill="#50b230" d="M 129.5,334.5 C 129.586,335.496 129.252,336.329 128.5,337C 136.032,339.678 143.699,341.845 151.5,343.5C 151.38,346.205 152.38,346.872 154.5,345.5C 158.783,347.579 163.116,349.079 167.5,350C 169.833,350.667 172.167,350.667 174.5,350C 175.308,348.294 176.641,347.461 178.5,347.5C 178.5,348.167 178.5,348.833 178.5,349.5C 168.06,350.81 157.393,351.477 146.5,351.5C 136.167,351.167 125.833,350.833 115.5,350.5C 117.177,348.46 118.844,346.46 120.5,344.5C 121.251,345.376 121.751,346.376 122,347.5C 122.84,344.536 123.84,344.203 125,346.5C 125.483,345.552 125.649,344.552 125.5,343.5C 124.5,343.5 123.5,343.5 122.5,343.5C 122.954,340.86 124.121,338.527 126,336.5C 126.816,335.177 127.983,334.511 129.5,334.5 Z"/></g>
<g><path style="opacity:1" fill="#74a23f" d="M 426.5,312.5 C 427.637,313.789 428.97,314.789 430.5,315.5C 434.468,319.639 438.301,323.973 442,328.5C 446.791,336.286 451.958,343.786 457.5,351C 457.095,351.945 456.428,352.612 455.5,353C 450.177,353.499 444.844,353.666 439.5,353.5C 443.879,351.568 448.546,350.235 453.5,349.5C 451.914,347.827 451.247,345.827 451.5,343.5C 449.146,343.162 446.813,342.662 444.5,342C 442.488,336.378 440.155,331.545 437.5,327.5C 436.5,326.833 435.5,326.167 434.5,325.5C 433.808,326.025 433.308,326.692 433,327.5C 431.383,326.464 431.216,325.297 432.5,324C 430.578,322.58 429.245,320.747 428.5,318.5C 427.549,319.326 426.549,319.492 425.5,319C 427.834,317.158 428.168,314.991 426.5,312.5 Z"/></g>
<g><path style="opacity:1" fill="#344272" d="M 249.5,338.5 C 246.875,343.437 243.541,347.77 239.5,351.5C 239.5,350.167 239.5,348.833 239.5,347.5C 240.172,346.733 241.005,346.066 242,345.5C 242.14,343.479 242.307,341.645 242.5,340C 244.74,339.023 247.073,338.523 249.5,338.5 Z"/></g>
<g><path style="opacity:1" fill="#326d48" d="M 181.5,344.5 C 181.5,345.167 181.5,345.833 181.5,346.5C 180.833,346.833 180.167,347.167 179.5,347.5C 179.427,345.973 180.094,344.973 181.5,344.5 Z"/></g>
<g><path style="opacity:0.996" fill="#4c8c54" d="M 283.5,332.5 C 281.014,337.418 279.014,342.584 277.5,348C 277.667,348.5 277.833,349 278,349.5C 279.019,348.313 280.186,347.313 281.5,346.5C 282.72,347.711 283.887,347.711 285,346.5C 285.49,347.793 285.657,349.127 285.5,350.5C 310.167,350.5 334.833,350.5 359.5,350.5C 366.034,350.767 372.368,350.767 378.5,350.5C 388.151,351.199 397.817,351.532 407.5,351.5C 414.833,351.5 422.167,351.5 429.5,351.5C 432.518,351.335 435.518,351.502 438.5,352C 437.584,352.278 436.918,352.778 436.5,353.5C 380.866,352.898 325.532,352.564 270.5,352.5C 270.343,351.127 270.51,349.793 271,348.5C 274.945,342.916 279.112,337.583 283.5,332.5 Z"/></g>
<g><path style="opacity:0.565" fill="#5ca142" d="M 133.5,323.5 C 132.154,327.207 130.821,330.874 129.5,334.5C 127.983,334.511 126.816,335.177 126,336.5C 124.121,338.527 122.954,340.86 122.5,343.5C 123.5,343.5 124.5,343.5 125.5,343.5C 125.649,344.552 125.483,345.552 125,346.5C 123.84,344.203 122.84,344.536 122,347.5C 121.751,346.376 121.251,345.376 120.5,344.5C 118.844,346.46 117.177,348.46 115.5,350.5C 125.833,350.833 136.167,351.167 146.5,351.5C 157.393,351.477 168.06,350.81 178.5,349.5C 178.5,350.5 178.5,351.5 178.5,352.5C 178.167,352.5 177.833,352.5 177.5,352.5C 156.156,352.833 134.823,352.5 113.5,351.5C 114.127,350.583 114.461,349.583 114.5,348.5C 120.457,339.877 126.79,331.544 133.5,323.5 Z"/></g>
<g><path style="opacity:0.565" fill="#364764" d="M 181.5,346.5 C 181.286,348.144 181.62,349.644 182.5,351C 187.351,351.174 192.018,351.674 196.5,352.5C 190.299,352.787 184.299,352.787 178.5,352.5C 178.5,351.5 178.5,350.5 178.5,349.5C 178.5,348.833 178.5,348.167 178.5,347.5C 178.833,347.5 179.167,347.5 179.5,347.5C 180.167,347.167 180.833,346.833 181.5,346.5 Z"/></g>
<g><path style="opacity:0.024" fill="#add59f" d="M 114.5,348.5 C 114.461,349.583 114.127,350.583 113.5,351.5C 134.823,352.5 156.156,352.833 177.5,352.5C 156.004,353.663 134.337,353.829 112.5,353C 111.388,350.892 112.054,349.392 114.5,348.5 Z"/></g>
<g><path style="opacity:0.994" fill="#111111" d="M 269.5,379.5 C 271.102,381.074 273.102,381.741 275.5,381.5C 279.212,381.877 282.212,383.544 284.5,386.5C 284.427,388.027 285.094,389.027 286.5,389.5C 289.467,394.82 290.133,400.487 288.5,406.5C 287.463,407.93 286.796,409.597 286.5,411.5C 286.372,413.09 285.705,414.423 284.5,415.5C 282.929,417.415 280.929,418.415 278.5,418.5C 276.973,418.427 275.973,419.094 275.5,420.5C 266.16,423.116 256.827,423.116 247.5,420.5C 246.22,419.069 244.553,418.402 242.5,418.5C 241.738,416.738 240.404,415.738 238.5,415.5C 236.827,414.657 235.66,413.324 235,411.5C 233,404.167 233,396.833 235,389.5C 235.852,388.429 236.685,387.429 237.5,386.5C 240.674,385.99 243.008,384.323 244.5,381.5C 252.691,379.672 261.024,379.006 269.5,379.5 Z M 272.5,402.5 C 271.326,403.514 270.66,404.847 270.5,406.5C 264.888,408.537 259.222,408.704 253.5,407C 250.606,404.091 249.773,400.591 251,396.5C 257.667,391.167 264.333,391.167 271,396.5C 272.128,398.345 272.628,400.345 272.5,402.5 Z"/></g>
<g><path style="opacity:0.412" fill="#7f7f7f" d="M 269.5,379.5 C 271.786,379.595 273.786,380.262 275.5,381.5C 273.102,381.741 271.102,381.074 269.5,379.5 Z"/></g>
<g><path style="opacity:0.993" fill="#111111" d="M 486.5,383.5 C 487.326,385.264 488.659,386.598 490.5,387.5C 491.167,387.5 491.5,387.833 491.5,388.5C 491.66,390.153 492.326,391.486 493.5,392.5C 497.863,409.965 491.196,419.798 473.5,422C 461.872,423.811 451.372,421.311 442,414.5C 437.624,405.816 437.458,397.149 441.5,388.5C 442.5,388.167 443.167,387.5 443.5,386.5C 443.833,385.5 444.5,384.833 445.5,384.5C 447.027,384.573 448.027,383.906 448.5,382.5C 450.898,382.741 452.898,382.074 454.5,380.5C 462.323,379.344 470.323,379.177 478.5,380C 481.361,380.872 484.028,382.038 486.5,383.5 Z M 469.5,392.5 C 470.93,393.537 472.597,394.204 474.5,394.5C 477.303,397.204 478.137,400.537 477,404.5C 475.961,405.71 474.794,406.71 473.5,407.5C 470.763,407.401 468.096,407.735 465.5,408.5C 462.947,407.745 460.28,407.078 457.5,406.5C 457.573,404.973 456.906,403.973 455.5,403.5C 454.784,398.037 457.117,394.537 462.5,393C 464.81,392.503 467.143,392.337 469.5,392.5 Z"/></g>
<g><path style="opacity:0.996" fill="#131313" d="M 214.5,385.5 C 214.738,387.404 215.738,388.738 217.5,389.5C 219.896,397.054 218.229,403.554 212.5,409C 210.608,409.973 208.608,410.64 206.5,411C 197.84,411.5 189.173,411.666 180.5,411.5C 179.523,414.287 179.19,417.287 179.5,420.5C 174.5,420.5 169.5,420.5 164.5,420.5C 163.504,407.344 163.171,394.01 163.5,380.5C 179.594,378.785 195.594,379.285 211.5,382C 212.71,383.039 213.71,384.206 214.5,385.5 Z M 180.5,392.5 C 186.842,392.334 193.175,392.5 199.5,393C 201.037,394.11 201.703,395.61 201.5,397.5C 194.588,398.462 187.588,398.795 180.5,398.5C 180.5,396.5 180.5,394.5 180.5,392.5 Z"/></g>
<g><path style="opacity:0.995" fill="#0b0b0b" d="M 306.5,380.5 C 320.837,380.333 335.171,380.5 349.5,381C 352.963,382.629 355.63,385.129 357.5,388.5C 358.114,392.135 358.448,395.802 358.5,399.5C 357.647,403.877 355.314,407.377 351.5,410C 354.553,413.387 357.22,417.053 359.5,421C 353.5,421.667 347.5,421.667 341.5,421C 339.585,418.6 337.919,416.1 336.5,413.5C 336.167,412.5 335.5,411.833 334.5,411.5C 330.03,410.514 325.363,410.181 320.5,410.5C 320.5,413.833 320.5,417.167 320.5,420.5C 315.5,420.5 310.5,420.5 305.5,420.5C 305.186,407.087 305.519,393.754 306.5,380.5 Z M 321.5,392.5 C 327.842,392.334 334.175,392.5 340.5,393C 341.305,394.113 341.972,395.279 342.5,396.5C 341.711,396.783 341.044,397.283 340.5,398C 334.175,398.5 327.842,398.666 321.5,398.5C 321.5,396.5 321.5,394.5 321.5,392.5 Z"/></g>
<g><path style="opacity:0.996" fill="#0f0f0f" d="M 426.5,393.5 C 420.167,393.5 413.833,393.5 407.5,393.5C 407.5,402.5 407.5,411.5 407.5,420.5C 402.36,421.488 397.026,421.821 391.5,421.5C 391.5,420.5 391.5,419.5 391.5,418.5C 391.5,410.167 391.5,401.833 391.5,393.5C 385.5,393.5 379.5,393.5 373.5,393.5C 373.5,389.167 373.5,384.833 373.5,380.5C 391.425,380.001 409.425,380.001 427.5,380.5C 427.818,385.032 427.485,389.366 426.5,393.5 Z"/></g>
<g><path style="opacity:0.702" fill="#6e6b6c" d="M 454.5,380.5 C 452.898,382.074 450.898,382.741 448.5,382.5C 450.214,381.262 452.214,380.595 454.5,380.5 Z"/></g>
<g><path style="opacity:0.435" fill="#898989" d="M 448.5,382.5 C 448.027,383.906 447.027,384.573 445.5,384.5C 445.973,383.094 446.973,382.427 448.5,382.5 Z"/></g>
<g><path style="opacity:0.882" fill="#606060" d="M 244.5,381.5 C 243.008,384.323 240.674,385.99 237.5,386.5C 239.55,384.453 241.883,382.786 244.5,381.5 Z"/></g>
<g><path style="opacity:0.784" fill="#797979" d="M 486.5,383.5 C 488.773,383.957 490.106,385.29 490.5,387.5C 488.659,386.598 487.326,385.264 486.5,383.5 Z"/></g>
<g><path style="opacity:0.527" fill="#8a8a8a" d="M 79.5,376.5 C 79.5,380.167 79.5,383.833 79.5,387.5C 84.8333,387.5 90.1667,387.5 95.5,387.5C 95.5,383.833 95.5,380.167 95.5,376.5C 96.4834,380.298 96.8168,384.298 96.5,388.5C 90.5,388.5 84.5,388.5 78.5,388.5C 78.1832,384.298 78.5166,380.298 79.5,376.5 Z"/></g>
<g><path style="opacity:0.988" fill="#060606" d="M 79.5,376.5 C 84.8333,376.5 90.1667,376.5 95.5,376.5C 95.5,380.167 95.5,383.833 95.5,387.5C 90.1667,387.5 84.8333,387.5 79.5,387.5C 79.5,383.833 79.5,380.167 79.5,376.5 Z"/></g>
<g><path style="opacity:0.384" fill="#888888" d="M 214.5,385.5 C 216.262,386.262 217.262,387.596 217.5,389.5C 215.738,388.738 214.738,387.404 214.5,385.5 Z"/></g>
<g><path style="opacity:0.541" fill="#878787" d="M 284.5,386.5 C 285.906,386.973 286.573,387.973 286.5,389.5C 285.094,389.027 284.427,388.027 284.5,386.5 Z"/></g>
<g><path style="opacity:0.11" fill="#bcbcbc" d="M 443.5,386.5 C 443.167,387.5 442.5,388.167 441.5,388.5C 441.5,387.167 442.167,386.5 443.5,386.5 Z"/></g>
<g><path style="opacity:0.075" fill="#b9b9b9" d="M 491.5,388.5 C 493.104,389.287 493.771,390.62 493.5,392.5C 492.326,391.486 491.66,390.153 491.5,388.5 Z"/></g>
<g><path style="opacity:0.631" fill="#7a7a7a" d="M 469.5,392.5 C 471.698,392.12 473.365,392.787 474.5,394.5C 472.597,394.204 470.93,393.537 469.5,392.5 Z"/></g>
<g><path style="opacity:0.982" fill="#121212" d="M 95.5,393.5 C 96.6573,402.324 96.824,411.324 96,420.5C 90.5934,421.473 85.0934,421.807 79.5,421.5C 79.5,412.167 79.5,402.833 79.5,393.5C 84.8333,393.5 90.1667,393.5 95.5,393.5 Z"/></g>
<g><path style="opacity:0.271" fill="#888888" d="M 357.5,388.5 C 359.569,392.044 359.902,395.71 358.5,399.5C 358.448,395.802 358.114,392.135 357.5,388.5 Z"/></g>
<g><path style="opacity:0.073" fill="#cdcdcd" d="M 373.5,380.5 C 373.5,384.833 373.5,389.167 373.5,393.5C 379.5,393.5 385.5,393.5 391.5,393.5C 391.5,401.833 391.5,410.167 391.5,418.5C 390.508,410.684 390.174,402.684 390.5,394.5C 384.5,394.5 378.5,394.5 372.5,394.5C 372.181,389.637 372.514,384.97 373.5,380.5 Z"/></g>
<g><path style="opacity:0.98" fill="#070707" d="M 107.5,394.5 C 122.167,394.5 136.833,394.5 151.5,394.5C 152.62,398.528 152.62,402.528 151.5,406.5C 136.833,406.5 122.167,406.5 107.5,406.5C 107.5,402.5 107.5,398.5 107.5,394.5 Z"/></g>
<g><path style="opacity:0.129" fill="#c5c5c5" d="M 95.5,393.5 C 90.1667,393.5 84.8333,393.5 79.5,393.5C 79.5,402.833 79.5,412.167 79.5,421.5C 78.5062,412.014 78.1729,402.348 78.5,392.5C 84.358,392.178 90.0247,392.511 95.5,393.5 Z"/></g>
<g><path style="opacity:0.291" fill="#6b6b6b" d="M 180.5,392.5 C 180.5,394.5 180.5,396.5 180.5,398.5C 187.588,398.795 194.588,398.462 201.5,397.5C 194.576,399.463 187.243,400.13 179.5,399.5C 179.198,396.941 179.532,394.607 180.5,392.5 Z"/></g>
<g><path style="opacity:0.354" fill="#6f6f6f" d="M 321.5,392.5 C 321.5,394.5 321.5,396.5 321.5,398.5C 327.842,398.666 334.175,398.5 340.5,398C 341.044,397.283 341.711,396.783 342.5,396.5C 342.586,397.496 342.252,398.329 341.5,399C 334.508,399.5 327.508,399.666 320.5,399.5C 320.198,396.941 320.532,394.607 321.5,392.5 Z"/></g>
<g><path style="opacity:0.097" fill="#aaaaaa" d="M 426.5,393.5 C 420.69,394.49 414.69,394.823 408.5,394.5C 408.826,403.349 408.493,412.016 407.5,420.5C 407.5,411.5 407.5,402.5 407.5,393.5C 413.833,393.5 420.167,393.5 426.5,393.5 Z"/></g>
<g><path style="opacity:0.294" fill="#989898" d="M 455.5,403.5 C 456.906,403.973 457.573,404.973 457.5,406.5C 456.094,406.027 455.427,405.027 455.5,403.5 Z"/></g>
<g><path style="opacity:0.29" fill="#979797" d="M 272.5,402.5 C 272.771,404.38 272.104,405.713 270.5,406.5C 270.66,404.847 271.326,403.514 272.5,402.5 Z"/></g>
<g><path style="opacity:0.15" fill="#bbbbbb" d="M 107.5,394.5 C 107.5,398.5 107.5,402.5 107.5,406.5C 122.167,406.5 136.833,406.5 151.5,406.5C 136.676,407.496 121.676,407.829 106.5,407.5C 106.182,402.968 106.515,398.634 107.5,394.5 Z"/></g>
<g><path style="opacity:0.22" fill="#acacac" d="M 288.5,406.5 C 288.88,408.698 288.213,410.365 286.5,411.5C 286.796,409.597 287.463,407.93 288.5,406.5 Z"/></g>
<g><path style="opacity:0.11" fill="#a5a5a5" d="M 473.5,407.5 C 471.513,408.343 469.346,409.01 467,409.5C 466.235,409.43 465.735,409.097 465.5,408.5C 468.096,407.735 470.763,407.401 473.5,407.5 Z"/></g>
<g><path style="opacity:0.004" fill="#c5c5c5" d="M 334.5,411.5 C 335.5,411.833 336.167,412.5 336.5,413.5C 335.167,413.5 334.5,412.833 334.5,411.5 Z"/></g>
<g><path style="opacity:0.549" fill="#8d8d8d" d="M 238.5,415.5 C 240.404,415.738 241.738,416.738 242.5,418.5C 240.596,418.262 239.262,417.262 238.5,415.5 Z"/></g>
<g><path style="opacity:0.122" fill="#b8b8b8" d="M 242.5,418.5 C 244.553,418.402 246.22,419.069 247.5,420.5C 245.447,420.598 243.78,419.931 242.5,418.5 Z"/></g>
<g><path style="opacity:0.027" fill="#aaaaaa" d="M 278.5,418.5 C 278.027,419.906 277.027,420.573 275.5,420.5C 275.973,419.094 276.973,418.427 278.5,418.5 Z"/></g>
<g><path style="opacity:0.133" fill="#757474" d="M 180.5,411.5 C 180.5,414.833 180.5,418.167 180.5,421.5C 174.974,421.821 169.64,421.488 164.5,420.5C 169.5,420.5 174.5,420.5 179.5,420.5C 179.19,417.287 179.523,414.287 180.5,411.5 Z"/></g>
<g><path style="opacity:0.075" fill="#7a7979" d="M 306.5,380.5 C 305.519,393.754 305.186,407.087 305.5,420.5C 310.5,420.5 315.5,420.5 320.5,420.5C 320.5,417.167 320.5,413.833 320.5,410.5C 325.363,410.181 330.03,410.514 334.5,411.5C 330.167,411.5 325.833,411.5 321.5,411.5C 321.5,414.833 321.5,418.167 321.5,421.5C 315.833,421.5 310.167,421.5 304.5,421.5C 303.851,407.459 304.518,393.792 306.5,380.5 Z"/></g>
</svg>
